<?xml version="1.0" encoding="utf-8"?>
<!-- Generator: Adobe Illustrator 25.1.0, SVG Export Plug-In . SVG Version: 6.00 Build 0)  -->
<svg version="1.1" id="Calque_1" xmlns="http://www.w3.org/2000/svg" xmlns:xlink="http://www.w3.org/1999/xlink" x="0px" y="0px"
	 viewBox="0 0 609.2 235.5" style="enable-background:new 0 0 609.2 235.5;" xml:space="preserve">
<style type="text/css">
	.st0{opacity:0.7;fill:#FFFFFF;}
</style>
<path class="st0" d="M588.7,1.2H219c-10.6,0-19.1,10.6-19.1,23.4l0,0c0,12.7,8.8,23.4,19.1,23.4h133.9c10.6,0,19.1,10.6,19.1,23.4
	l0,0c0,12.7-8.8,23.4-19.1,23.4H219H20.8c-10.6,0-19.1,10.6-19.1,23.4l0,0c0,12.7,8.8,23.4,19.1,23.4h164.5
	c10.6,0,19.1,10.6,19.1,23.4l0,0c0,12.7-8.8,23.4-19.1,23.4h-37c-10.6,0-19.1,10.6-19.1,23.4l0,0c0,12.7,8.8,23.4,19.1,23.4h198.5
	c10.6,0,19.1-10.6,19.1-23.4l0,0c0-12.7-8.8-23.4-19.1-23.4h-58c-10.6,0-19.1-10.6-19.1-23.4l0,0c0-12.7,8.8-23.4,19.1-23.4h196.1
	c10.6,0,19.1-10.6,19.1-23.4l0,0c0-12.7-8.8-23.4-19.1-23.4h-60.1c-10.6,0-19.1-10.6-19.1-23.4l0,0c0-12.7,8.8-23.4,19.1-23.4h163.9
	c10.6,0,19.1-10.6,19.1-23.4l0,0C607.9,11.8,599.4,1.2,588.7,1.2z"/>
</svg>
