<svg 
						xmlns="http://www.w3.org/2000/svg" 
						version="1.1" 
						xmlns:xlink="http://www.w3.org/1999/xlink" 	
						xmlns:svgjs="http://svgjs.com/svgjs" 
						height="1em" 
						width="1em" 
						class="iconify iconify--fa-solid" 
						role="img" aria-hidden="true" xmlns:xlink="http://www.w3.org/1999/xlink"
						x="0" y="0" 
						viewBox="0 0 512 512" preserveAspectRatio="xMidYMid meet" 
					style="cursor: pointer; color: rgb(40, 181, 191); width: 35px; height: 35px;"
>
<g><linearGradient 
xmlns="http://www.w3.org/2000/svg" 
id="SVGID_1_" 
gradientUnits="userSpaceOnUse" x1="256" x2="256" y1="512" y2="0">
<stop stop-opacity="1" stop-color="#32baa8" offset="0">
</stop><stop stop-opacity="1" stop-color="#32baa8" offset="0"></stop></linearGradient>
<g xmlns="http://www.w3.org/2000/svg"><g><g>
<path d="m211 392h90c8.284 0 15-6.716 15-15s-6.716-15-15-15h-90c-8.284 0-15 6.716-15 15s6.716 15 15 15zm210-150c-8.284 0-15 6.716-15 15s6.716 15 15 15 15-6.716 15-15-6.716-15-15-15zm-210 210h90c8.284 0 15-6.716 15-15s-6.716-15-15-15h-90c-8.284 0-15 6.716-15 15s6.716 15 15 15zm240-300h-75v-77c0-41.355-33.645-75-75-75h-150c-8.284 0-15 6.716-15 15v137h-75c-24.813 0-45 20.187-45 45v150c0 24.813 20.187 45 45 45h75v105c0 8.284 6.716 15 15 15h210c8.284 0 15-6.716 15-15v-105h75c24.813 0 45-20.187 45-45v-150c0-24.813-20.187-45-45-45zm-106.939-90.061c-4.136-1.257-8.52-1.939-13.061-1.939h-15v-15c0-4.541-.682-8.925-1.939-13.061 14.327 4.354 25.646 15.674 30 30zm-178.061-31.939h105c8.271 0 15 6.729 15 15v30c0 8.284 6.716 15 15 15h30c8.271 0 15 6.729 15 15v47h-180zm180 452h-180v-150h180zm120-135c0 8.271-6.729 15-15 15h-75v-30h15c8.284 0 15-6.716 15-15s-6.716-15-15-15h-270c-8.284 0-15 6.716-15 15s6.716 15 15 15h15v30h-75c-8.271 0-15-6.729-15-15v-150c0-8.271 6.729-15 15-15h390c8.271 0 15 6.729 15 15zm-105-105c-8.284 0-15 6.716-15 15s6.716 15 15 15 15-6.716 15-15-6.716-15-15-15z" fill="url(#SVGID_1_)" data-original="url(#SVGID_1_)" style=""></path></g></g></g></g>
</svg>