<?xml version="1.0" encoding="utf-8"?>
<!-- Generator: Adobe Illustrator 25.2.3, SVG Export Plug-In . SVG Version: 6.00 Build 0)  -->
<svg version="1.1" id="Calque_1" xmlns="http://www.w3.org/2000/svg" xmlns:xlink="http://www.w3.org/1999/xlink" x="0px" y="0px"
	 viewBox="0 0 627.2 323" style="enable-background:new 0 0 627.2 323;" xml:space="preserve">
<style type="text/css">
	.st0{fill:#FFEDD2;}
	.st1{fill:#FFFFFF;}
	.st2{fill:#E4ECEF;}
	.st3{fill:#1F253A;}
	.st4{fill:#FFF3E1;}
	.st5{fill:#9DA7BA;}
	.st6{fill:#52B2B2;}
	.st7{fill:#F47F64;}
	.st8{fill:#27465B;}
	.st9{fill:#13737F;}
	.st10{fill:#FFD385;}
	.st11{fill:none;stroke:#1F253A;stroke-width:1.9;stroke-linejoin:round;}
</style>
<g id="Groupe_795" transform="translate(-23.777 -12.699)">
	<g id="illustration-contact" transform="translate(23.777 37.599)">
		<path id="Tracé_1359" class="st0" d="M48.5,253.6c-82.5-92.6-43.8-211,81.2-231c148.8-23.8,204.4,85.7,204.4,85.7
			s49.3-21.3,92.3,13c32.9,26.2,39.6,108-4.6,132.3H48.5z"/>
	</g>
	<g id="Calque_64" transform="translate(33.862 12.699)">
		<g id="Groupe_792" transform="translate(316.064 144.018)">
			<g id="Groupe_791">
				<path id="Tracé_1360" class="st1" d="M261.7,162.9L217.8,134l43.9-22V162.9h-87.8V112l43.9,22l-43.9,28.8"/>
				<path id="Tracé_1361" class="st2" d="M255.4,173h-87.8v-54.4l43.9,22l43.9-22V173z"/>
				<g id="Tracé_1362">
					<path class="st3" d="M261.7,163.8h-87.8c-0.5,0-1-0.4-1-1V112c0-0.3,0.2-0.6,0.5-0.8s0.6-0.2,0.9,0l43.5,21.8l43.5-21.8
						c0.3-0.2,0.6-0.1,0.9,0c0.3,0.2,0.5,0.5,0.5,0.8v50.9C262.6,163.4,262.2,163.8,261.7,163.8z M177.1,161.9h81.4l-40.7-26.7
						L177.1,161.9z M174.9,113.5v47.6l41-27L174.9,113.5z M219.7,134.1l41,27v-47.6L219.7,134.1z"/>
				</g>
				<g id="Tracé_1363">
					<path class="st1" d="M206.3,87.3l11.5-8.7l11.4,8.7"/>
					<polygon class="st3" points="206.9,88.1 205.7,86.6 217.8,77.4 229.8,86.5 228.6,88 217.8,79.8 					"/>
				</g>
				<g id="Tracé_1364">
					<path class="st4" d="M182.6,105.4l-8.7,6.6l8.7,4.8"/>
					<path class="st3" d="M182.2,117.6l-8.7-4.8c-0.3-0.2-0.5-0.4-0.5-0.8c0-0.3,0.1-0.6,0.4-0.8l8.7-6.6l1.2,1.5l-7.6,5.8l7.4,4.1
						L182.2,117.6z"/>
				</g>
				<g id="Tracé_1365">
					<path class="st1" d="M182.6,116.8V87H253v29.6L217.8,134L182.6,116.8z"/>
					<path class="st3" d="M217.8,135.1l-36.1-17.7V86h72.2v31.1L217.8,135.1z M183.6,116.2l34.2,16.8l34.2-17v-28h-68.4V116.2z"/>
				</g>
				<g id="Ligne_400">
					<path class="st3" d="M243.7,102.4h-49.9c-0.5,0-1-0.4-1-1s0.4-1,1-1h49.9c0.5,0,1,0.4,1,1S244.2,102.4,243.7,102.4z"/>
				</g>
				<g id="Ligne_401">
					<path class="st5" d="M243.7,111.1h-49.9c-0.5,0-1-0.4-1-1s0.4-1,1-1h49.9c0.5,0,1,0.4,1,1S244.2,111.1,243.7,111.1z"/>
				</g>
				<g id="Ligne_402">
					<path class="st5" d="M243.7,118.6h-49.9c-0.5,0-1-0.4-1-1s0.4-1,1-1h49.9c0.5,0,1,0.4,1,1S244.2,118.6,243.7,118.6z"/>
				</g>
				<g id="Groupe_790" transform="translate(22.105 30.586)">
					<path id="Tracé_1366" class="st5" d="M209.6,95.3h-27.9l-3-1.4h33.8L209.6,95.3z"/>
				</g>
				<g id="Ligne_403">
					
						<rect x="256.3" y="103" transform="matrix(0.6057 -0.7957 0.7957 0.6057 15.005 247.4922)" class="st3" width="1.9" height="11.2"/>
				</g>
			</g>
			<circle id="Ellipse_169" class="st6" cx="261.7" cy="162.9" r="9.9"/>
		</g>
		<path id="Tracé_1367" class="st1" d="M611.5,137.1l-24.7-11.2l24.7-20.6V137.1l-49.3,0v-31.8l24.7,20.6l-24.7,11.2"/>
		<rect id="Rectangle_752" x="558.6" y="109.4" class="st2" width="49.3" height="34"/>
		<g id="Tracé_1368">
			<path class="st3" d="M611.5,138.1h-49.3c-0.5,0-1-0.4-1-1v-31.8c0-0.4,0.2-0.7,0.5-0.9c0.3-0.2,0.7-0.1,1,0.1l21,17.7
				c0.2,0.2,0.4,0.5,0.3,0.8c0,0.3-0.2,0.6-0.4,0.7l-18.4,12.4h43.1l-18.3-12.4c-0.2-0.2-0.4-0.4-0.4-0.7c0-0.3,0.1-0.6,0.3-0.8
				l20.8-17.7c0.3-0.2,0.7-0.3,1-0.1c0.3,0.2,0.6,0.5,0.6,0.9v31.8C612.4,137.6,612,138.1,611.5,138.1z M563.1,107.3v28l18.4-12.4
				L563.1,107.3z M592.2,122.9l18.3,12.4v-28L592.2,122.9z"/>
		</g>
		<g id="Tracé_1369">
			<path class="st1" d="M562.2,105.3h49.3l-24.9,20.8L562.2,105.3z"/>
			<path class="st3" d="M586.6,127c-0.2,0-0.4-0.1-0.6-0.2L561.6,106c-0.3-0.3-0.4-0.7-0.3-1.1s0.5-0.6,0.9-0.6h49.3
				c0.4,0,0.8,0.3,0.9,0.6c0.1,0.4,0,0.8-0.3,1.1l-24.9,20.8C587,126.9,586.8,127,586.6,127z M564.8,106.2l21.9,18.6l22.3-18.6
				H564.8z"/>
		</g>
		<g id="Tracé_1370">
			<path class="st7" d="M479.9,84.3l-5.1,1.6l-1.6,5.2c-0.2,0.6-0.8,1-1.5,0.8c-0.2-0.1-0.5-0.2-0.6-0.4l-3.1-4.4l-5.4,0.1
				c-0.6,0-1.2-0.5-1.2-1.2c0-0.3,0.1-0.5,0.2-0.7l3.2-4.3l-1.8-5.1c-0.2-0.6,0.1-1.3,0.7-1.5c0.2-0.1,0.5-0.1,0.7,0l5.1,1.7
				l4.3-3.3c0.5-0.4,1.3-0.3,1.6,0.2c0.2,0.2,0.2,0.5,0.2,0.7l0,5.4l4.4,3.1c0.5,0.4,0.7,1.1,0.3,1.6
				C480.4,84.1,480.1,84.2,479.9,84.3L479.9,84.3z"/>
			<path class="st3" d="M472.1,92.9c-0.2,0-0.4,0-0.6-0.1c-0.4-0.1-0.8-0.4-1.1-0.8l-2.9-4l-4.9,0.1c-0.6,0-1.1-0.2-1.5-0.6
				c-0.4-0.4-0.6-0.9-0.6-1.5c0-0.5,0.1-0.9,0.4-1.3l2.9-3.9l-1.6-4.6c-0.2-0.5-0.1-1.1,0.1-1.6s0.7-0.9,1.2-1.1
				c0.4-0.1,0.9-0.2,1.4,0l4.6,1.6l3.9-3c0.5-0.3,1-0.5,1.6-0.4c0.6,0.1,1.1,0.4,1.4,0.8c0.3,0.4,0.4,0.8,0.4,1.3l0,4.9l4,2.8
				c0.5,0.3,0.8,0.8,0.9,1.4c0.1,0.6,0,1.1-0.4,1.6c-0.1,0.2-0.3,0.3-0.4,0.5V85l-0.7,0.2l-4.7,1.5l-1.4,4.7c-0.2,0.5-0.5,1-1,1.3
				C472.7,92.8,472.4,92.9,472.1,92.9z M468.4,86.1l3.4,4.8c0,0,0.1,0.1,0.1,0.1c0.1,0,0.2,0,0.3-0.1l1.7-5.6l5.6-1.8
				c0,0,0.1,0,0.1-0.1c0-0.1,0-0.1,0-0.2c0,0,0-0.1-0.1-0.1l-4.8-3.4l0-5.9c0,0,0-0.1,0-0.1c0-0.1-0.1-0.1-0.1-0.1c0,0-0.1,0-0.2,0
				l-4.7,3.6l-5.6-1.9c0,0-0.1,0-0.1,0c-0.1,0-0.1,0.1-0.1,0.1s0,0.1,0,0.2l1.9,5.6l-3.5,4.7c0,0,0,0.1,0,0.1c0,0.1,0,0.1,0.1,0.2
				c0,0,0.1,0.1,0.2,0.1L468.4,86.1z M479.9,84.3L479.9,84.3L479.9,84.3z"/>
		</g>
		<g id="etoile02">
			<path class="st8" d="M388.3,102.1l0.5-2.8l-2.1-2l2.8-0.4l1.3-2.6l1.2,2.6l2.8,0.4l-2.1,2l0.5,2.8l-2.5-1.4L388.3,102.1z"/>
			<path class="st3" d="M393.4,103c-0.2,0-0.3,0-0.5-0.1l-2.1-1.1l-2.1,1.1c-0.3,0.2-0.7,0.1-1-0.1c-0.3-0.2-0.4-0.6-0.4-0.9
				l0.4-2.3l-1.7-1.6c-0.3-0.3-0.4-0.6-0.2-1c0.1-0.3,0.4-0.6,0.8-0.6L389,96l1-2.1c0.2-0.3,0.5-0.5,0.9-0.5c0,0,0,0,0,0
				c0.4,0,0.7,0.2,0.9,0.5l1,2.1l2.3,0.3c0.4,0.1,0.7,0.3,0.8,0.7c0.1,0.3,0,0.7-0.3,1l-1.7,1.6l0.4,2.3c0.1,0.4-0.1,0.7-0.4,0.9
				C393.8,103,393.6,103,393.4,103z M390.9,99.8c0.2,0,0.3,0,0.5,0.1l0.8,0.4l-0.2-0.9c-0.1-0.3,0.1-0.6,0.3-0.9l0.6-0.6l-0.9-0.1
				c-0.3,0-0.6-0.2-0.7-0.5l-0.4-0.8l-0.4,0.8c-0.1,0.3-0.4,0.5-0.7,0.5l-0.9,0.1l0.6,0.6c0.2,0.2,0.3,0.5,0.3,0.9l-0.2,0.9l0.8-0.4
				C390.6,99.8,390.7,99.8,390.9,99.8z"/>
		</g>
		<g id="etoile02-2">
			<path class="st8" d="M460.2,129.2l-0.3,2.8l2.2,1.8l-2.8,0.6l-1.1,2.6l-1.4-2.5l-2.9-0.2l1.9-2.1l-0.7-2.8l2.6,1.2L460.2,129.2z"
				/>
			<path class="st3" d="M458.1,138.1c-0.3,0-0.7-0.2-0.8-0.5l-1.1-2.1l-2.3-0.2c-0.4,0-0.7-0.3-0.8-0.6c-0.1-0.3-0.1-0.7,0.2-1
				l1.6-1.7l-0.6-2.3c-0.1-0.4,0-0.7,0.3-1s0.7-0.3,1-0.1l2.1,1l2-1.2c0.3-0.2,0.7-0.2,1,0c0.3,0.2,0.5,0.6,0.4,0.9l-0.3,2.3
				l1.8,1.5c0.3,0.2,0.4,0.6,0.3,1c-0.1,0.4-0.4,0.6-0.7,0.7l-2.3,0.5l-0.9,2.2C458.9,137.8,458.5,138,458.1,138.1
				C458.2,138.1,458.1,138.1,458.1,138.1z M455.9,133.6l0.9,0.1c0.3,0,0.6,0.2,0.8,0.5l0.4,0.8l0.3-0.8c0.1-0.3,0.4-0.5,0.7-0.6
				l0.9-0.2l-0.7-0.6c-0.2-0.2-0.4-0.5-0.3-0.8l0.1-0.9l-0.7,0.5c-0.3,0.2-0.6,0.2-0.9,0.1l-0.8-0.4l0.2,0.8c0.1,0.3,0,0.6-0.2,0.9
				L455.9,133.6z"/>
		</g>
		<g id="Tracé_1371">
			<path class="st6" d="M375.7,33.1l1.9,6l-3.9,4.9c-0.5,0.6-0.4,1.5,0.2,1.9c0.2,0.2,0.5,0.3,0.8,0.3l6.3,0.1l3.5,5.3
				c0.4,0.6,1.3,0.8,1.9,0.4c0.3-0.2,0.4-0.4,0.5-0.7l2-6l6.1-1.7c0.7-0.2,1.1-1,0.9-1.7c-0.1-0.3-0.3-0.5-0.5-0.7l-5-3.8l0.3-6.3
				c0-0.8-0.6-1.4-1.3-1.4c-0.3,0-0.6,0.1-0.8,0.2l-5.2,3.6l-5.9-2.2c-0.7-0.3-1.5,0.1-1.8,0.8C375.6,32.5,375.6,32.8,375.7,33.1
				L375.7,33.1z"/>
			<path class="st3" d="M385.7,53.2c-0.8,0-1.5-0.4-1.9-1l-3.2-4.8l-5.8-0.1c-0.5,0-1-0.2-1.4-0.5c-0.5-0.4-0.8-0.9-0.9-1.5
				s0.1-1.2,0.5-1.7l3.6-4.6l-1.7-5.6c-0.1-0.5-0.1-1,0-1.5c0.4-1.2,1.8-1.8,3-1.4l5.4,2l4.8-3.3c0.4-0.3,0.9-0.4,1.4-0.4
				c1.3,0.1,2.3,1.1,2.2,2.4l-0.2,5.8l4.6,3.5c0.4,0.3,0.7,0.7,0.8,1.2c0.2,0.6,0.1,1.2-0.2,1.8c-0.3,0.5-0.8,0.9-1.4,1.1l-5.6,1.6
				l-1.9,5.5c-0.2,0.5-0.5,0.9-0.9,1.2C386.5,53.1,386.1,53.2,385.7,53.2z M376.6,32.7L376.6,32.7l2,6.6l-4.2,5.3
				c-0.1,0.1-0.1,0.2-0.1,0.3c0,0.1,0,0.2,0.2,0.3c0.1,0.1,0.2,0.1,0.3,0.1l6.8,0.1l3.8,5.7c0.1,0.2,0.4,0.2,0.6,0.1
				c0.1-0.1,0.1-0.1,0.2-0.2l2.2-6.4l6.6-1.8c0.1,0,0.2-0.1,0.2-0.2c0-0.1,0.1-0.2,0-0.3c0-0.1-0.1-0.2-0.2-0.2l-5.4-4.1l0.3-6.8
				c0-0.2-0.2-0.4-0.4-0.4c-0.1,0-0.2,0-0.3,0.1l-5.6,3.9l-6.4-2.4c-0.2-0.1-0.5,0-0.5,0.2C376.6,32.6,376.6,32.7,376.6,32.7z"/>
		</g>
		<g id="Tracé_1372">
			<path class="st8" d="M171.1,18.2l1.9,0.6l0.6,2c0.1,0.2,0.3,0.4,0.6,0.3c0.1,0,0.2-0.1,0.2-0.2l1.2-1.6l2.1,0.1
				c0.2,0,0.5-0.2,0.5-0.4c0-0.1,0-0.2-0.1-0.3l-1.2-1.7l0.7-1.9c0.1-0.2,0-0.5-0.3-0.6c-0.1,0-0.2,0-0.3,0l-1.9,0.6l-1.6-1.3
				c-0.2-0.1-0.5-0.1-0.6,0.1c-0.1,0.1-0.1,0.2-0.1,0.3l0,2.1l-1.7,1.2c-0.2,0.1-0.2,0.4-0.1,0.6C171,18.2,171,18.2,171.1,18.2
				L171.1,18.2z"/>
			<path class="st3" d="M174.1,22.1c-0.2,0-0.4-0.1-0.6-0.2c-0.3-0.2-0.6-0.5-0.7-0.8l-0.4-1.5l-1.5-0.5c0,0-0.1,0-0.1,0
				c-0.2-0.1-0.5-0.3-0.6-0.5c-0.2-0.3-0.3-0.7-0.2-1c0.1-0.4,0.3-0.7,0.6-0.9l1.3-0.9l0-1.6c0-0.3,0.1-0.6,0.3-0.8
				c0.5-0.6,1.3-0.8,2-0.3l1.2,1l1.5-0.5c0.3-0.1,0.6-0.1,0.9,0c0.7,0.2,1.1,1,0.9,1.8l-0.5,1.5l0.9,1.3c0.2,0.3,0.3,0.5,0.3,0.8
				c0,0.4-0.2,0.7-0.4,1s-0.6,0.4-1,0.4l-1.6-0.1l-0.9,1.2c-0.2,0.2-0.4,0.4-0.7,0.5C174.4,22.1,174.2,22.1,174.1,22.1z M172.4,17.7
				l1,0.3c0.3,0.1,0.5,0.3,0.6,0.6l0.3,1l0.6-0.8c0.2-0.3,0.5-0.4,0.8-0.4l1,0l-0.6-0.8c-0.2-0.3-0.2-0.6-0.1-0.9l0.4-1l-1,0.3
				c-0.3,0.1-0.6,0-0.9-0.2l-0.8-0.6l0,1c0,0.3-0.2,0.6-0.4,0.8L172.4,17.7z"/>
		</g>
		<g id="Tracé_1373">
			<path class="st7" d="M168.9,59.5l3.7-0.4l1.8-3.3c0.2-0.4,0.7-0.5,1.1-0.3c0.2,0.1,0.3,0.2,0.4,0.4l1.5,3.4L181,60
				c0.4,0.1,0.7,0.5,0.6,0.9c0,0.2-0.1,0.3-0.3,0.5l-2.8,2.5l0.5,3.7c0.1,0.4-0.3,0.8-0.7,0.9c-0.2,0-0.3,0-0.5-0.1l-3.2-1.9
				l-3.4,1.6c-0.4,0.2-0.9,0-1.1-0.4c-0.1-0.2-0.1-0.3-0.1-0.5l0.8-3.7l-2.6-2.7c-0.3-0.3-0.3-0.8,0-1.1
				C168.5,59.6,168.7,59.5,168.9,59.5L168.9,59.5z"/>
			<path class="st3" d="M178.3,69.4c-0.3,0-0.6-0.1-0.9-0.2l-2.8-1.6l-2.9,1.4c-0.4,0.2-0.9,0.2-1.3,0.1c-0.4-0.2-0.8-0.5-1-0.9
				c-0.2-0.3-0.2-0.7-0.1-1.1l0.7-3.2l-2.2-2.3c-0.5-0.6-0.6-1.4-0.3-2l-0.9-0.7l5.4-0.6l1.5-2.8c0.2-0.4,0.6-0.7,1-0.8
				c0.5-0.1,0.9-0.1,1.3,0.1c0.3,0.2,0.6,0.5,0.8,0.8l1.3,2.9l3.2,0.6c0.5,0.1,0.9,0.3,1.1,0.7s0.4,0.9,0.3,1.3
				c-0.1,0.4-0.3,0.7-0.6,1l-2.4,2.2l0.4,3.2c0.1,0.5-0.1,0.9-0.4,1.3c-0.3,0.4-0.7,0.6-1.2,0.7C178.4,69.4,178.4,69.4,178.3,69.4z
				 M174.7,65.4l3.4,2l-0.5-3.9l2.9-2.6l-3.9-0.7l-1.6-3.6l-1.9,3.5l-2,0.2l0,0l-2,0.2l2.7,2.9l-0.8,3.9L174.7,65.4z"/>
		</g>
		<g id="Ligne_404">
			<rect x="11.4" y="289.4" class="st3" width="438.2" height="1.9"/>
		</g>
		<path id="Tracé_1374" class="st1" d="M95.2,151.9c0,0,26.9,17.1,31.2,19.6c4.2,2.5,17.2,8.5,26.6,9.6c9.5,1,26.4,4.2,30.2,4.5
			c3.8,0.4,10.6,1.2,11.5,5.5c0.8,4.3,0.1,10.6-1.6,12c-1.7,1.4-5.5,1.7-12.2,1.2c-6.8-0.5-30.5-2.8-39.5-3.8c-9-1-16.2-2-22.1-5.3
			c-4.7-2.6-23-11.4-29.2-14.3l1.4-22.9L95.2,151.9z"/>
		<g id="Tracé_1375">
			<path class="st3" d="M189.9,206.1c-0.1,0-0.3,0-0.4,0c-0.4,0-1.7-0.1-3.6-0.3c-38-3.2-58.3-5.6-62.2-7.3
				c-5.6-2.5-34-16.5-34.3-16.6l0.8-1.7c0.3,0.1,28.7,14.1,34.2,16.6c3.6,1.6,24.4,4.1,61.6,7.2c1.9,0.2,3.2,0.3,3.6,0.3
				c2.4,0.2,4.1-3.6,4.3-5.8c0.4-3.2,0.2-8.4-1.5-9.7c-1.4-1-15.7-3.1-25.2-4.6c-6.1-0.9-11.4-1.7-13.7-2.2
				c-6.1-1.3-16.3-3.4-21.6-6.1c-6-3.1-35.9-22.2-37.2-23.1l1-1.6c0.3,0.2,31.1,19.9,37,23c5,2.6,15.1,4.7,21.1,5.9
				c2.2,0.5,7.5,1.3,13.6,2.2c14.7,2.2,24.5,3.7,26.1,4.9c3.3,2.5,2.3,11.1,2.3,11.4C195.5,201.3,193.5,206.1,189.9,206.1z"/>
		</g>
		<g id="Tracé_1376">
			<path class="st1" d="M194.6,188.1c0,0,5.2-6.1,6.7-7.3c1.5-1.2,9.1-5.5,9.1-5.5l5.2,1.8l-8.9,2.6c0,0,8.2-2.8,12.1-2.4
				c2.8,0.5,5.3,1.9,7.4,3.8l-12.6,2.5c0,0,12.9-2.5,14.8-1.5c2.8,1.4,4.4,6,4.4,6l-14.2,1.5c0,0,13.9-1.3,16.1-1.1
				c4.6,0.4,9.1,1.2,13.5,2.2c3.8,1,5.8,3.1,4.2,5.3c-1.6,2.2-13.2,0.8-17.3,0.6c-3-0.1-15.5,3.3-15.5,3.3l-2.7,3.1
				c0,0,4.6,0.8,6.8,1c2.2,0.2,5.2-0.6,7.9,0c2,0.4,4.1,1.9,3.4,3.8s-9.4,3.5-11.8,3.8c-6.3-0.5-12.6-1.3-18.9-2.5
				c-3.8-1.3-7.5-2.8-11.2-4.5"/>
			<path class="st3" d="M223.2,212.6C223.1,212.6,223.1,212.6,223.2,212.6c-6.4-0.5-12.8-1.3-19-2.6c0,0-0.1,0-0.1,0
				c-3.8-1.3-7.6-2.9-11.2-4.6l0.8-1.7c3.6,1.7,7.3,3.2,11,4.5c6.1,1.2,12.4,2,18.6,2.5c4.4-0.6,10.4-2.2,10.9-3.2
				c0.1-0.4,0.1-0.7-0.1-1c-0.4-0.7-1.4-1.3-2.6-1.5c-1.5-0.3-3.1-0.2-4.7-0.1c-1.1,0.1-2.2,0.2-3.2,0.1c-2.2-0.2-6.6-1-6.8-1
				c-0.3-0.1-0.6-0.3-0.7-0.6c-0.1-0.3,0-0.7,0.2-0.9l2.7-3.1c0.1-0.1,0.3-0.2,0.5-0.3c1.3-0.4,12.7-3.5,15.8-3.3
				c0.8,0,2,0.1,3.3,0.2c3.6,0.3,12.2,0.9,13.1-0.4c0.5-0.7,0.4-1.2,0.3-1.4c-0.3-1-1.9-1.9-4-2.5c-4.4-1-8.9-1.7-13.4-2.1
				c-1.7-0.2-12.1,0.7-15.9,1.1c-0.5,0-1-0.3-1-0.9c-0.1-0.5,0.3-1,0.8-1l12.9-1.3c-0.7-1.5-1.9-3.6-3.4-4.3
				c-1-0.5-8.2,0.5-14.2,1.6c-0.5,0.1-1-0.2-1.1-0.8c-0.1-0.5,0.2-1,0.7-1.1l10.6-2.1c-1.6-1.1-3.5-1.9-5.4-2.3
				c-1.6-0.2-4.2,0.3-6.5,0.9l-5.1,1.5c-0.5,0.1-1-0.1-1.2-0.6c-0.2-0.5,0.1-1,0.6-1.2c0.2-0.1,2.4-0.8,5.1-1.5l1-0.3l-1.9-0.7
				c-2.3,1.3-7.4,4.3-8.6,5.2c-1.2,1-5.1,5.5-6.6,7.2l-1.4-1.2c0.2-0.3,5.2-6.2,6.8-7.4c1.6-1.3,8.9-5.4,9.2-5.6
				c0.2-0.1,0.5-0.2,0.8-0.1l5.2,1.8c0.1,0,0.3,0.1,0.4,0.2c1-0.1,1.9-0.1,2.6,0c3,0.6,5.7,2,7.9,4c0.2,0.2,0.3,0.4,0.3,0.6
				c0.7,0,1.3,0.1,1.6,0.3c2.7,1.4,4.4,5.2,4.8,6.3c0.5,0,1,0,1.2,0c4.6,0.4,9.2,1.2,13.7,2.2c2.9,0.8,4.8,2.1,5.3,3.7
				c0.3,0.7,0.4,1.8-0.6,3.1c-1.5,2-7.3,1.8-14.8,1.2c-1.3-0.1-2.5-0.2-3.3-0.2c-2.3-0.1-11.3,2.2-14.9,3.2l-1.4,1.6
				c1.5,0.2,3.7,0.6,5,0.7c0.8,0.1,1.8,0,2.8-0.1c1.6-0.1,3.4-0.3,5.2,0.1c1.3,0.2,3,1,3.8,2.5c0.5,0.8,0.6,1.7,0.2,2.6
				c-1.1,2.9-12.4,4.5-12.5,4.5C223.2,212.6,223.2,212.6,223.2,212.6z"/>
		</g>
		<path id="Tracé_1377" class="st9" d="M353.6,283c-0.2-4.9-4.7-4.4-7.9-4.4c-3.3,0-35.4-3.6-51.6-6.6c-3.2-0.6-7.7-1.5-12.9-2.6
			c-22.9-23.6-70.8-72.3-75.7-73.7c-6.5-1.8-15.6-2.7-20.2-0.5c-0.5,0.2-1.8,1-3.6,2.2L55.1,287.7c5.5,10.9,12,16.8,20.2,19.4
			c7.4,2.4,24.6,0,36.3-3.6c23.9-0.5,95.6-10.1,101.8-10.5c7.4-0.6,48.2,4.7,53.5,5.2c0.6,0.1,2.1,0.1,4.2,0.2
			c1.3,1.2,2.7,2.3,4.2,3.3c3.7,0.2,7.3-0.8,10.4-2.8c22.4,0.6,56.7,1.5,58.7,1.7c2.8,0.3,4.6,0.1,6.4-1.2S353.8,288,353.6,283z
			 M212.9,257.3c-16.2-0.5-31.9-1.9-31.9-1.9s-3.7-0.1-8.2,0c12.6-11.7,22.6-21.3,23.8-22.5c0.8-0.9,1.3-2,1.4-3.2
			c0.2-1,0.5-1,0.7,0l-0.3,1.8c0,0.2,1.5,1.5,1.7,1.7c2,1.6,14,12.9,27.9,25.7C222.9,258.1,217.9,257.5,212.9,257.3L212.9,257.3z"/>
		<g id="Tracé_1378">
			<path class="st1" d="M353.8,275.7c0,0,6.9-12.5,9.6-17.3c3.2-5.7,7.9-16.8,7.9-18.3c0-5.8,0.9-11.7,6.5-12.1
				c1.4-0.1,2.8,3.3,2.4,7.2s-0.7,12.6-0.7,18.7s-4.2,18.5-4.2,22.9s2.2,16.5-3.1,18.9c-5.2,2.5-20.4-2.5-20.4-2.5"/>
			<path class="st3" d="M368,297.4c-6.7,0-16.1-3.1-16.6-3.3l0.6-1.8c4.1,1.4,15.7,4.5,19.7,2.6c3.6-1.7,3.1-9.8,2.7-14.7
				c-0.1-1.3-0.2-2.5-0.2-3.4c0-2.2,0.9-6,1.9-10.1c1.1-4.5,2.3-9.7,2.3-12.9c0-6.4,0.2-14.9,0.7-18.8c0.4-3.6-0.9-6.1-1.4-6.2
				c-3.8,0.3-5.5,3.7-5.5,11.1c0,1.9-5,13.4-8,18.8c-2.7,4.7-9.6,17.2-9.6,17.3l-1.7-0.9c0.1-0.1,7-12.6,9.6-17.3
				c3.3-5.9,7.7-16.5,7.7-17.9c0-3.4,0-12.5,7.3-13c0.4,0,1.1,0.1,1.7,0.8c1.3,1.4,2,4.5,1.7,7.5c-0.4,3.8-0.7,12.4-0.7,18.6
				c0,3.4-1.2,8.4-2.4,13.3c-0.9,3.9-1.8,7.7-1.8,9.6c0,0.8,0.1,2,0.2,3.3c0.4,5.7,1,14.3-3.8,16.5
				C371.3,297.2,369.8,297.4,368,297.4z"/>
		</g>
		<g id="Tracé_1379">
			<path class="st1" d="M278.9,297.4c-0.9,2.2-1.1,4.6-0.7,7c0.8,3.1,17.3,1.9,22.1,0.8c4.8-1.2,20.9,0.8,27.1,0
				c6.2-0.8,14.7-0.5,13.9-2.5c-0.8-2-0.8-7-5-7c-4.2,0-32.6-8.6-35.9-9.2c-2-0.3-3.9-1.1-5.6-2.2"/>
			<path class="st3" d="M287.1,307.3c-4.9,0-9.3-0.6-9.9-2.7c-0.5-2.6-0.2-5.2,0.7-7.6l1.8,0.7c-0.8,2.1-1,4.3-0.6,6.5
				c0.5,1.7,14.5,1.5,20.9,0.1c2.6-0.6,8.2-0.4,14.1-0.1c5,0.2,10.3,0.5,13.1,0.1c1.9-0.3,4-0.4,6.1-0.6c2.6-0.2,6-0.4,6.9-0.9
				c-0.2-0.5-0.3-1-0.5-1.6c-0.6-2.7-1.3-4.5-3.6-4.5c-2.6,0-13.3-2.9-25.9-6.5c-4.9-1.4-9.1-2.6-10.2-2.8c-2.1-0.3-4.2-1.2-6-2.4
				l1.1-1.6c1.6,1.1,3.4,1.8,5.2,2.1c1.2,0.2,5.3,1.4,10.4,2.8c9.1,2.6,22.7,6.4,25.3,6.4c4,0,4.9,3.8,5.4,6
				c0.2,0.6,0.3,1.2,0.5,1.6c0.2,0.5,0.2,1-0.1,1.4c-0.8,1.3-3.5,1.5-8.5,1.9c-2,0.1-4.1,0.3-6,0.5c-3,0.4-8.3,0.2-13.4-0.1
				c-5.5-0.3-11.2-0.5-13.5,0.1C298.9,306.5,292.7,307.3,287.1,307.3z"/>
		</g>
		<g id="Tracé_1380">
			<path class="st3" d="M83.7,304.9c-3.3,0-6.2-0.3-8.3-1c-8.7-2.8-15.2-9.1-20.7-19.9l1.7-0.9c5.2,10.3,11.5,16.3,19.6,18.9
				c9.3,3,35.2-1.8,44.5-7.2c15.8-9.2,75.3-66.3,75.9-66.9c0.6-0.7,1-1.6,1.1-2.6c0,0,0-0.1,0-0.1c0.1-0.4,0.3-1.5,1.3-1.5
				c0.9,0,1.2,1,1.3,1.5c0,0.1,0,0.2,0,0.4l-0.2,1.5c0.3,0.3,0.8,0.8,1,1c0.1,0.1,0.2,0.2,0.3,0.2c1.8,1.5,10.6,9.6,21.7,19.9
				c18.9,17.5,50.5,46.8,53.3,48.1c2.8,0.4,9.2-1.1,15.2-6.9c5.5-5.4,2.2-10.7,1.8-11.3c-32.6-33.9-82.7-84.6-87.3-85.9
				c-6.6-1.8-15.4-2.6-19.6-0.5c-0.4,0.2-1.7,1-3.5,2.2l-1.1-1.6c1.8-1.2,3.2-2,3.7-2.3c4.8-2.3,14.2-1.4,20.9,0.4
				c6.5,1.8,79.8,77.8,88.2,86.5c0,0,0.1,0.1,0.1,0.1c0.1,0.1,5,7.1-2,13.8c-6.6,6.4-13.7,7.9-16.9,7.4
				c-1.6-0.2-13.7-11.1-54.2-48.6c-11.2-10.3-20-18.5-21.7-19.9c0,0-0.1,0-0.1-0.1c0,0-0.1-0.1-0.2-0.2c-0.5-0.5-0.9-0.8-1.2-1.1
				c-0.2,0.3-0.4,0.6-0.7,0.9c-0.6,0.6-60.2,57.9-76.3,67.2C113.9,301,95.8,304.9,83.7,304.9z M276.1,296.5L276.1,296.5L276.1,296.5
				z M276,296.5C276,296.5,276,296.5,276,296.5C276,296.5,276,296.5,276,296.5z"/>
		</g>
		<g id="Tracé_1381">
			<path class="st1" d="M99.9,163.8c0,0-4.2-10.4-4.2-11.3s1.9-8.9,3.3-15.6l-22.5-8.3l-3.6,22.3l19.7,7L99.9,163.8"/>
			<path class="st3" d="M99.3,164.5l-7.3-5.8l-20.3-7.2l3.9-24.2l24.4,9l-0.2,0.8c-0.4,1.9-0.9,3.9-1.3,5.8c-0.9,4.2-2,8.9-2,9.6
				c0.1,0.7,2.2,6.1,4.2,11l-0.9,0.4L99.3,164.5z M73.8,150.2l19.1,6.8l4.7,3.8c-1.5-3.9-2.9-7.6-2.9-8.3c0-0.7,0.6-3.4,2.1-10
				c0.4-1.6,0.7-3.4,1.1-5l-20.7-7.6L73.8,150.2z"/>
		</g>
		<g id="Tracé_1382">
			<path class="st3" d="M117,298.7l-0.2-1.9c0.9-0.1,86.8-7.2,93.4-8.4c3.8-0.7,24.3,1.1,62.7,5.4l-0.2,1.9
				c-37.7-4.2-58.6-6.1-62.1-5.4C203.9,291.5,120.5,298.4,117,298.7z"/>
		</g>
		<g id="Tracé_1383">
			<path class="st3" d="M229.3,256.5c-3.6-1.3-7.3-2-11.1-2.3c0,0,0,0,0,0c-6.6,0-42.8-2.5-44.3-2.6l0.1-1.9
				c0.4,0,37.7,2.6,44.3,2.6c4,0.3,7.9,1.1,11.6,2.4L229.3,256.5z"/>
		</g>
		<g id="Tracé_1384">
			<path class="st3" d="M348.9,297.4c-2.2,0-12.8-0.7-13.3-0.7l0.1-1.9c0.1,0,11,0.7,13.2,0.7c1.4,0,2.5-2,3.9-7.4
				c1.4-5.2,0.3-11.6-0.6-12.5c-0.4-0.4-3-0.3-5.1-0.2c-2.2,0.1-5,0.2-7.7,0c-6.1-0.5-55.6-8.7-57.7-9l0.3-1.9
				c0.5,0.1,51.5,8.5,57.6,9c2.6,0.2,5.2,0.1,7.5,0c3.3-0.1,5.5-0.2,6.5,0.8c1.6,1.6,2.5,9,1.1,14.3
				C353.3,293.6,352.1,297.4,348.9,297.4z"/>
		</g>
		<path id="Tracé_1385" class="st1" d="M116.3,179.1c0,0,8.3,8.3,10.6,10.7c2.3,2.4,13.5,14.1,13.5,14.1s15.2-14.9,19.9-19.6
			c4.7-4.6,20.9-20.5,22.2-21.5c1.2-1,2.2-2.2,3.2-3.5c0,0,8.2,3.5,10.4,5.5c2.2,2.1,6,5.2,2.8,9.5s-19.4,21.5-23.2,26
			c-3.8,4.5-26.2,25.9-28.3,26.7s-2.9,3.8-10,0.4c-7.1-3.4-31-17.3-31-17.3c-0.7,1.2-1.8,2.2-3,2.8c-1.9,0.9-2.8,6-2.8,9.2
			s3.2,21.9,3.2,23.5c-0.3,4.4-1.3,8.8-3,12.9c-2.3,5.5-9.1,18.8-19,22.5c-9.9,3.7-20.7,7.1-25.4,6.8c-4.7-0.3-7.4-1-7.9-2.1
			c-0.5-1.1-1.8-31.2-0.7-42.4c1-11,0.9-35.2,2.2-38.2s10.8-42.8,18.7-48.6c7.9-5.8,24.3,2,24.3,2l7.7,5.6"/>
		<g id="Tracé_1386">
			<path class="st1" d="M106.3,136.7c21.2-4,25.9-24.2,23-40c-2.1-11.4-9.5-25.4-9.5-25.4s-5-20.2-15.9-21.5
				C93,48.5,53,64.4,49.6,78.4s16.9,46.4,21.7,48.9C76.1,129.9,85.7,140.5,106.3,136.7z"/>
			<path class="st3" d="M97.6,138.5c-11.9,0-19.2-5.1-23.8-8.4c-1.1-0.8-2.1-1.5-2.9-1.9c-5.2-2.7-25.7-35.7-22.2-50
				c3.5-14.3,43.5-30.8,55.3-29.3c11.1,1.3,16.3,20.3,16.7,22.1c0.7,1.4,7.5,14.5,9.5,25.5c3.2,17.6-2.9,37.2-23.8,41.1l-0.2-0.9
				l0.2,0.9C103.3,138.2,100.3,138.5,97.6,138.5z M102.4,50.6c-12.4,0-48.7,15-51.9,28c-3.3,13.6,16.8,45.5,21.2,47.8
				c0.9,0.5,1.9,1.2,3.1,2c5.5,3.9,14.7,10.3,31.3,7.2l0,0c19.6-3.7,25.3-22.2,22.2-38.9c-2-11.1-9.3-24.9-9.4-25.1l-0.1-0.2
				c0-0.2-5-19.6-15.1-20.8C103.4,50.7,102.9,50.6,102.4,50.6z"/>
		</g>
		<path id="Tracé_1387" class="st10" d="M120.6,56.7c-7.9-8.6-24.5-14.4-44-9.6s-28.2,21.3-30.8,28c-2.6,7.2-3.9,14.8-4,22.4
			c0,6.5-0.3,20.7,0.7,22.6c0.7,1.3,1.6,2.5,2.7,3.5l0.4,5.4c0,0-4.5,6.3-7.4,9.7s-16.1,16.3-17.9,22.9c-1.8,6.5-3.3,14,1,23.7
			c4.4,9.7,7.1,11.3,7.3,14.2c0.3,3-1.2,7.2-5.2,7.3c-3.9,0.2-9.4-7.1-9.4-7.1s1.2,10.2,6,13.3c4.8,3.1,6.6,2.5,6.6,2.5
			s0.8,11.2,7.1,15c7.2,4.7,16.2,5.6,24.1,2.4c9.6-3.7,19.2-7.7,23.8-17.2c4.6-9.4,8.4-22.3,8.7-31.7c0.2-5.8-0.1-11.5-0.9-17.2
			c0,0,5.2-5.9,6.9-8.5c1.7-2.6,8-15.8,8-23.2c0-7.4-0.8-20.6-3.7-27.6c-3-7-3.3-8.2-3.3-8.2s3.7-7.7,5.7-13.4
			c3.5-7,6.6-22.5,6.6-22.5s7,3.3,8.6,5.2c1.7,1.9,7.5,8.4,7.5,8.4S128.5,65.3,120.6,56.7z M95.2,142.9c-1.7,7.6-6.8,16.7-6.8,16.7
			s-4-11.2-4.2-17.1s0.4-9.2,0-9.3c-3.2-1.1-5.8-3.3-7.7-6.1c-2.5-3.9-3.4-13.9-3.1-16.2c0.6-3.2,3.4-5.4,6.7-5.3
			c3.7,0.3,5.7,3.3,7.7,5.7s6.4,15.9,6.4,15.9S96.4,137.4,95.2,142.9z"/>
		<g id="Tracé_1388">
			<path class="st11" d="M199.9,169.6"/>
		</g>
		<g id="Tracé_1389">
			<path class="st3" d="M83.4,128.2c-5,0-9-4.6-10.3-6.2c-3.4-4.3-6-17.9-0.9-22.2c4.3-3.7,9.8,0.3,12.1,3l0.8,1
				c1.3-1.3,2.6-2.7,3.9-4.3c13.6-16.1,16.5-39.8,16.5-40l0.2-1.5l1.3,0.8c0.2,0.1,4.2,2.6,6.6,4.5c1.9,1.6,6.1,6.7,8.5,9.8
				c-0.4-3.9-1.2-10.5-2.2-13.6c-1.6-4.6-7.1-11.2-9.4-13c-6.5-4.9-28.6-8.6-46,2.1C44.3,61.2,41.9,75.9,40.9,82.1
				c-1.3,8-0.3,28.7-0.2,31.3l1.3,1.8l-1.5,1.1l-1.7-2.3l0-0.3c-0.1-0.9-1.3-23.3,0.2-32c1.7-10.2,5.9-23.3,24.4-34.7
				c18.1-11.2,41.3-7.2,48.2-2c2.5,1.9,8.3,8.7,10.1,13.9c1.6,4.9,2.5,16.7,2.6,17.2l0.2,3.2l-1.9-2.5c-0.1-0.1-7.6-9.9-10.2-12.1
				c-1.5-1.2-3.8-2.7-5.1-3.5c-0.9,5.5-4.7,25.4-16.7,39.6c-1.6,1.9-3.2,3.6-4.7,5.2l-0.8,0.8l-2.1-2.8c0,0-5.4-6.1-9.4-2.7
				c-4.2,3.5-1.8,15.7,1.1,19.5c2.6,3.3,6.8,6.4,10.7,5.1c2.3-0.9,4.1-2.9,4.7-5.4l1.8,0.4c-0.7,3.1-2.9,5.6-5.9,6.8
				C85.1,128.1,84.2,128.2,83.4,128.2z"/>
		</g>
		<g id="Tracé_1390">
			<path class="st3" d="M39.7,122.7l0.6-8.9l0.8-0.1c4.1-0.4,7.9-2.2,10.8-5c5.4-5.4,9.5-12.1,11.8-19.4c1.7-6.2,2.7-12.6,3.1-19
				l1.9,0.1c-0.4,6.6-1.4,13.1-3.2,19.5c-2.4,7.6-6.6,14.6-12.2,20.2c-3.1,2.9-7,4.8-11.2,5.4l-0.4,5.2c4-0.2,8.1-0.7,12.1-1.5
				c5.8-1.1,11.3-3.2,16.4-6.2l1,1.6c-5.3,3.1-11,5.2-17,6.4c-4.4,0.8-8.9,1.4-13.4,1.5L39.7,122.7z"/>
		</g>
		<g id="Tracé_1391">
			<path class="st3" d="M85.5,160.6l-2.5-8.4l0.2-0.4c0.1-0.1,6.9-10.9,7.6-21.5c0.7-10.6-6.5-24.3-6.5-24.4l1.7-0.9
				c0.3,0.6,7.5,14.3,6.8,25.4c-0.7,10.1-6.4,20-7.7,22l1.5,5c2.4-2.3,8.6-9.3,12.4-25.1c4.8-19.9-4.8-38.3-4.9-38.5l1.7-0.9
				c0.4,0.8,10,19.1,5.1,39.8c-4.9,20.7-13.8,26.8-14.2,27.1L85.5,160.6z"/>
		</g>
		<g id="Tracé_1392">
			<path class="st3" d="M42.8,229.4c-2.7,0-5.2-0.3-7.4-1c-13.3-4-13.7-18.7-13.7-18.8l1.9,0c0,0.5,0.4,13.5,12.3,17
				c11.5,3.4,34.1-2.8,42.1-19.9c6-12.7,10.3-36.2,6.9-47.3l-0.8-2.7c-3.2-10.5-6.2-20.5-5.5-30c0-0.3,0.1-0.6,0.1-0.9
				c0-0.3,0-0.6,0.1-0.9l1.9,0.3c0,0.3-0.1,0.5-0.1,0.8c0,0.3,0,0.6-0.1,0.9c-0.7,9.1,2.3,18.9,5.4,29.2l0.8,2.7
				c3.5,11.5-0.9,35.6-7,48.7C72.9,222.4,55.5,229.4,42.8,229.4z"/>
		</g>
		<g id="Tracé_1393">
			<path class="st3" d="M23.1,210c-1.6,0-3.2-0.3-4.9-1c-7.4-3-9.1-15.3-9.2-15.8c-0.1-0.4,0.2-0.9,0.6-1c0.4-0.1,0.9,0,1.1,0.4
				c1.3,2.2,5.4,7.6,9.1,6.6c1.4-0.4,2.5-1.4,3-2.9c0.8-2.5,0.1-5.6-2-8.4c-3-4.1-9.8-15-7.4-29c1.6-9.4,8.9-17,14.2-22.6
				c1.7-1.8,3.2-3.4,4.1-4.6c3.6-4.9,8-10.6,8-10.7c0.2-0.2,0.5-0.4,0.8-0.4h0l3.6,0c0.3,0,0.7,0.2,0.8,0.5
				c0.4,0.7,9.3,17.5,2.1,31.8l-1.2,2.4c-7.1,14.1-10.7,21.1-7.9,26.9c3.2,6.7,4.2,11.5,0.2,18.2C35.6,205,29.7,210,23.1,210z
				 M11.9,197.3c1.1,3.6,3.2,8.4,7.1,10c7.3,3,14.7-2.7,17.6-7.7c3.6-6,2.7-10.2-0.3-16.4c-3.2-6.6,0.5-13.9,7.9-28.6l1.2-2.4
				c6-12.1-0.5-26.7-1.8-29.6l-2.5,0c-1,1.4-4.7,6.1-7.7,10.3c-1,1.3-2.5,2.9-4.3,4.8c-5.1,5.4-12.2,12.8-13.7,21.6
				c-2.3,13.2,4.2,23.6,7.1,27.5c2.5,3.3,3.3,7.1,2.3,10.2c-0.7,2.1-2.3,3.6-4.3,4.2C17,201.9,14,199.6,11.9,197.3z"/>
		</g>
		<path id="oeil" class="st3" d="M114.5,91c1.2-0.3,2.8,2,3.9,6c1,4,0.9,6.6-0.3,6.9c-1.2,0.3-3-1.8-4.1-5.8
			C113,94.1,113.3,91.3,114.5,91z"/>
		<g id="Tracé_1394">
			<path class="st1" d="M129.4,96.1c0,0,6.6,6.2,6.6,7.1c-0.1,0.9-6.3,7.1-6.3,7.1c0.3-2.4,0.5-4.8,0.4-7.3
				C130.2,100.7,129.9,98.3,129.4,96.1z"/>
			<path class="st3" d="M128.5,112.9l0.4-2.8c0.3-2.4,0.5-4.8,0.4-7.1c0-2.3-0.3-4.5-0.8-6.8l-0.6-3l2.2,2.1
				c6.9,6.5,6.9,7.4,6.9,7.8c0,0.4-0.1,1.3-6.5,7.8L128.5,112.9z M130.9,98.7c0.2,1.4,0.3,2.8,0.3,4.3c0,1.5,0,3.1-0.2,4.7
				c1.8-1.9,3.5-3.7,4-4.5C134.5,102.4,132.8,100.6,130.9,98.7z M135.1,103.4L135.1,103.4L135.1,103.4z M135.1,102.9L135.1,102.9
				L135.1,102.9z"/>
		</g>
		<g id="Tracé_1395">
			<path class="st3" d="M41,118.9l-0.2-1.9c4.9-0.5,9.6-1.9,13.9-4.3c6.5-4,12.2-9.2,16.9-15.3c4.9-6.4,12.7-28.7,12.8-28.9l1.8,0.6
				c-0.3,0.9-8,22.8-13.1,29.4c-4.8,6.3-10.7,11.6-17.5,15.8C51.1,116.9,46.2,118.4,41,118.9z"/>
		</g>
		<g id="Tracé_1396">
			<path class="st3" d="M39,122.1c-0.3,0-0.6,0-0.9-0.1l-0.2-0.1c-1.3-0.5-2.2-1.6-2.6-3c-0.6-2.4,0.8-4.9,3.2-5.5l0.1,0l0.1,0
				c1,0,2,0.6,2.5,1.4l0.1,0.2l0,0.3c0,0.1,0.1,3.5-0.1,4.8c0,0.6-0.3,1.1-0.7,1.5C40.2,122,39.6,122.1,39,122.1z M38.5,120.2
				c0.7,0.1,0.9,0,0.9,0c0,0,0-0.1,0-0.2c0.1-0.9,0.1-3.1,0.1-4.2c-0.2-0.2-0.5-0.3-0.7-0.4c-1.3,0.4-2,1.8-1.7,3.1
				C37.3,119.2,37.8,119.8,38.5,120.2z"/>
		</g>
		<g id="Tracé_1397">
			<path class="st3" d="M104.4,247.5l-1.1-1.6c0.1-0.1,14.3-9.9,30.6-21.1l1.1,1.6C118.7,237.6,104.6,247.4,104.4,247.5z"/>
		</g>
		<g id="Tracé_1398">
			<path class="st3" d="M53.5,289.3c-3,0-5.2-0.8-6-2.7c-1.3-3.3-1.6-37.2-0.5-51.1l1.9,0.2c-1.2,14.4-0.8,47.4,0.3,50.2
				c1.5,3.8,15.2-0.3,22.6-2.5c2.2-0.7,4.1-1.2,5.6-1.6c21.7-5.6,25.6-32.8,25.9-35.1c-0.5-2.4-5.4-26-2-32.3
				c0.1-0.2,0.2-0.3,0.4-0.4c1.7-0.8,3.2-1.8,4.5-3.1l1.3,1.4c-1.4,1.3-3,2.4-4.7,3.2c-2.3,5.3,0.9,24.1,2.4,31c0,0.1,0,0.2,0,0.3
				c0,0.3-3.5,30.7-27.3,36.8c-1.5,0.4-3.4,0.9-5.5,1.6C66,287.1,58.6,289.3,53.5,289.3z"/>
		</g>
		<g id="Tracé_1399">
			<path class="st3" d="M143.7,229.9c-7.8,0-38.9-17.6-58-31.8l1.1-1.5c23.5,17.5,53.7,32.8,57.3,31.4c6.4-2.6,51.3-47.8,54.6-55
				c0.5-1.2,0.5-2.3,0-3.6c-2-4.6-10.5-8.1-12.7-9l-44.9,44.1c-0.2,0.2-0.4,0.3-0.7,0.3c-0.3,0-0.5-0.1-0.7-0.3
				c-0.4-0.4-39.6-42-50.8-47.7l0.9-1.7c10.8,5.4,45.2,41.6,50.6,47.4l44.6-43.9c0.3-0.3,0.6-0.3,1-0.2c0.5,0.2,11.8,4.2,14.4,10.2
				c0.7,1.7,0.7,3.4,0,5.1c-3.5,7.7-48.7,53.2-55.6,56C144.5,229.9,144.1,229.9,143.7,229.9z"/>
		</g>
		<g id="Tracé_1400">
			<path class="st3" d="M119.3,123.8c-0.4,0-0.7,0-1.1-0.1l0.2-1.9c1.5,0.2,2.9-0.1,4.3-0.7c2.7-1,4.6-3.2,5.2-5.9l1.9,0.4
				c-0.8,3.3-3.1,6.1-6.3,7.3C122.1,123.5,120.7,123.8,119.3,123.8z"/>
		</g>
		<g id="Tracé_1401">
			<path class="st3" d="M106.9,88.3l-1.5-1.1c1.6-2.2,3.6-4,6-5.4c1.5-1,3.3-1.5,5.1-1.3l-0.1,1.9c-1.4-0.1-2.8,0.3-4,1
				C110.2,84.7,108.4,86.4,106.9,88.3z"/>
		</g>
		<g id="Tracé_1402">
			<path class="st1" d="M218.6,159.7c5-2.8,6.3-3.5,7.3-4.7c1.1-0.9,1.3-2.5,0.6-3.7c-0.5-1.3-2.6-1.8-2.6-1.8l-0.1,0.1
				c1.6-1.3,1.7-3.7,0.4-5.2c-0.5-0.6-1.2-1-1.9-1.2l-10.1,5.5l10.1-5.6c0,0,1.5-1.1-0.2-4.2c-1.8-3.1-3.9-1.2-9.7,0.9
				c-2.5,0.9-4.3,1.6-5.5,2.1c-0.7-0.5-2.4-1.9-2.4-2.5c0-0.8,2.1-9.1,2.4-10.3c0.8-3,0.7-6.1-0.3-9c-0.9-2.3-4.2-2.4-4.2-2.4
				s0.1-0.9-0.2-0.9s-0.8,6.3-1.8,8.8c-1,2.5-3.2,10.8-5.6,13.3c-3.2,3.5-8.7,20.9-8.7,20.9l14,11.8c0,0,15.6-4.1,17.8-5.6
				c1.5-1,5.3-4.4,6.4-5.4c3-2.8,1.5-4.7,1.5-4.7L218.6,159.7z M215,154.5c2.6-1.8,5.4-3.4,8.3-4.6l0,0l-1.3,0.8L215,154.5z"/>
			<path class="st3" d="M200.1,172.2c-0.2,0-0.4-0.1-0.6-0.2l-14-11.8c-0.3-0.2-0.4-0.6-0.3-1c0.2-0.7,5.6-17.7,8.9-21.3
				c1.6-1.7,3.2-6.6,4.3-9.9c0.4-1.3,0.8-2.4,1.1-3.1c0.6-1.4,1-4.3,1.3-6.2c0.4-2.6,0.5-3.2,1.4-3.2c0.3,0,0.6,0.1,0.8,0.4
				c0.2,0.2,0.3,0.4,0.3,0.7c1.2,0.2,3.4,0.8,4.2,2.9c1.1,3.2,1.2,6.5,0.4,9.6c-0.1,0.4-0.3,1.4-0.7,2.8c-0.6,2.3-1.6,6.4-1.7,7.2
				c0.2,0.3,0.9,1,1.6,1.5c1.2-0.5,2.8-1.1,5-1.9c1.1-0.4,2.1-0.8,3-1.2c3.6-1.5,5.9-2.4,7.8,0.7c1.2,2.1,1.1,3.5,0.8,4.3
				c0.5,0.3,0.9,0.6,1.3,1.1c1.3,1.5,1.5,3.7,0.5,5.3c0.7,0.3,1.5,0.9,1.9,1.8c0.8,1.5,0.6,3.4-0.6,4.6c0.4,0.9,0.8,3-1.9,5.5
				c-1,0.9-4.9,4.4-6.5,5.5c-2.3,1.6-16.5,5.3-18.1,5.7C200.2,172.2,200.1,172.2,200.1,172.2z M187.2,159.1l13.1,11
				c6.2-1.6,15.5-4.3,17-5.3c1.4-1,5-4.2,6.3-5.3c1.2-1.1,1.5-2,1.6-2.6l-0.6,0.4c-1,0.6-2.4,1.4-4.6,2.7l-0.8,0.5
				c-0.5,0.3-1,0.1-1.3-0.4s-0.1-1,0.3-1.3l5.4-3.1c0.8-0.5,1.3-0.9,1.7-1.4c0,0,0.1-0.1,0.1-0.1c0.7-0.7,0.9-1.7,0.4-2.6
				c0,0,0-0.1-0.1-0.1c-0.2-0.6-1.1-0.9-1.6-1.1c-0.1,0.1-0.1,0.1-0.2,0.2l-1.3,0.8l-7.1,3.8c-0.4,0.2-1,0.1-1.3-0.3
				c-0.3-0.4-0.1-1,0.3-1.3c2.7-1.8,5.5-3.4,8.5-4.7c0.1,0,0.1,0,0.2-0.1c0-0.1,0.1-0.1,0.1-0.1c1.2-1,1.3-2.8,0.3-3.9
				c-0.3-0.4-0.7-0.6-1.1-0.8l-9.7,5.3c-0.5,0.3-1,0.1-1.3-0.4c-0.3-0.5-0.1-1,0.4-1.3l10-5.6c0.1-0.1,0.7-0.9-0.5-2.9
				c-0.9-1.6-1.6-1.5-5.4,0.1c-0.9,0.4-1.9,0.8-3.1,1.2c-2.5,0.9-4.3,1.6-5.5,2c-0.3,0.1-0.6,0.1-0.9-0.1c-0.1-0.1-2.8-1.9-2.8-3.3
				c0-0.6,0.5-2.9,1.7-7.8c0.3-1.3,0.6-2.4,0.7-2.7c0.7-2.8,0.6-5.8-0.3-8.5c-0.5-1.3-2.2-1.6-3-1.7c0,0.2-0.1,0.4-0.1,0.6
				c-0.3,2.1-0.8,5-1.4,6.6c-0.3,0.6-0.6,1.7-1,2.9c-1.2,3.6-2.9,8.6-4.7,10.6C193,141.8,188.8,153.9,187.2,159.1z"/>
		</g>
		<g id="Groupe_793" transform="translate(153.471 34.284)">
			<g id="Tracé_1403">
				<path class="st1" d="M171.8,23.8l-13.5,21l-20.8,44.7l-26.1-25.5L171.8,23.8z"/>
				<path class="st3" d="M137.6,90.5c-0.2,0-0.5-0.1-0.7-0.3l-26.1-25.5c-0.2-0.2-0.3-0.5-0.3-0.8c0-0.3,0.2-0.5,0.4-0.7l60.3-40.2
					c0.4-0.2,0.9-0.2,1.2,0.1c0.3,0.3,0.4,0.8,0.1,1.2l-13.4,21L138.4,90c-0.1,0.3-0.4,0.5-0.7,0.5
					C137.7,90.5,137.6,90.5,137.6,90.5z M113,64.2L137.3,88l20.3-43.5c0,0,0-0.1,0.1-0.1l11-17.2L113,64.2z"/>
			</g>
			<g id="Tracé_1404">
				<path class="st1" d="M86.5,42.1l18,16.9l67.3-35.2L86.5,42.1z"/>
				<path class="st3" d="M104.5,60c-0.2,0-0.5-0.1-0.7-0.3l-18-16.9c-0.3-0.2-0.4-0.6-0.3-0.9s0.4-0.6,0.7-0.7l85.3-18.2
					c0.5-0.1,0.9,0.2,1.1,0.6c0.2,0.4,0,0.9-0.5,1.2l-67.3,35.2C104.8,59.9,104.6,60,104.5,60z M88.5,42.6l16.2,15.2l60.6-31.6
					L88.5,42.6z"/>
			</g>
			<g id="Tracé_1405">
				<path class="st3" d="M107.7,84.5c-0.1,0-0.2-0.1-0.3-0.1c-0.3-0.2-0.5-0.6-0.5-0.9c0-0.2,2-10.7,3.7-19.5
					c0.1-0.3,0.3-0.6,0.6-0.7c0.3-0.1,0.7,0,0.9,0.2l10,9.8c0.2,0.2,0.3,0.5,0.3,0.8c0,0.3-0.2,0.5-0.4,0.7
					C110.3,83.1,108.4,84.5,107.7,84.5z M112.1,66c-1,5-2.3,12-3,15.5c2.5-1.8,7.3-5.2,10.9-7.7L112.1,66z"/>
			</g>
			<g id="Tracé_1406">
				<path class="st3" d="M107.8,84.5C107.8,84.5,107.8,84.5,107.8,84.5c-0.5,0-0.9-0.4-0.9-0.8l-3.3-24.5l1.9-0.3l2.5,18.7l2.6-13.7
					l1.9,0.4l-3.7,19.5C108.7,84.1,108.3,84.5,107.8,84.5z"/>
			</g>
		</g>
		<g id="Groupe_794" transform="translate(265.401)">
			<path id="Tracé_1407" class="st10" d="M155,16.4l-3.7,0.1l-2,3.1c-0.2,0.4-0.7,0.5-1.1,0.2c-0.1-0.1-0.3-0.2-0.3-0.4l-1.3-3.5
				L143,15c-0.4-0.1-0.7-0.6-0.6-1c0-0.2,0.1-0.3,0.3-0.4l2.9-2.3l-0.2-3.7c0-0.4,0.3-0.8,0.8-0.9c0.2,0,0.4,0,0.5,0.1l3.1,2.1
				l3.5-1.4c0.4-0.2,0.9,0,1.1,0.5c0.1,0.2,0.1,0.3,0,0.5l-1,3.6l2.4,2.9c0.3,0.3,0.2,0.9-0.1,1.1C155.4,16.3,155.2,16.4,155,16.4
				L155,16.4z"/>
		</g>
		<g id="etoile03">
			<path class="st8" d="M336.4,175.8l-3,0.9l-0.9,3l-1.8-2.6l-3.1,0.1l1.9-2.5l-1-2.9l2.9,1l2.5-1.9l-0.1,3.1L336.4,175.8z"/>
			<path class="st3" d="M332.5,180.6c-0.3,0-0.6-0.2-0.8-0.4l-1.5-2.1l-2.6,0.1c-0.4,0-0.7-0.2-0.9-0.5c-0.2-0.3-0.1-0.7,0.1-1
				l1.6-2.1l-0.9-2.4c-0.1-0.3,0-0.7,0.2-1c0.3-0.3,0.6-0.3,1-0.2l2.5,0.9l2.1-1.6c0.3-0.2,0.7-0.3,1-0.1s0.5,0.5,0.5,0.9l-0.1,2.6
				l2.1,1.5c0.3,0.2,0.5,0.6,0.4,0.9c-0.1,0.4-0.3,0.7-0.7,0.8l-2.5,0.8l-0.7,2.5c-0.1,0.4-0.4,0.6-0.8,0.7
				C332.6,180.6,332.6,180.6,332.5,180.6z M330.8,176.2c0.3,0,0.6,0.2,0.8,0.4l0.6,0.9l0.3-1.1c0.1-0.3,0.3-0.6,0.6-0.6l1.1-0.3
				l-0.9-0.6c-0.3-0.2-0.4-0.5-0.4-0.8l0-1.1l-0.9,0.7c-0.3,0.2-0.6,0.3-0.9,0.1l-1.1-0.4l0.4,1.1c0.1,0.3,0.1,0.6-0.1,0.9l-0.7,0.9
				L330.8,176.2C330.7,176.2,330.7,176.2,330.8,176.2z"/>
		</g>
		<path id="Tracé_1408" class="st10" d="M300,206.6l1.3-2.8l3-0.5c0.4-0.1,0.6-0.4,0.5-0.8c0-0.1-0.1-0.3-0.2-0.4l-2.2-2.1l0.4-3
			c0.1-0.4-0.2-0.7-0.6-0.8c-0.1,0-0.3,0-0.4,0.1l-2.7,1.5l-2.8-1.4c-0.3-0.2-0.7,0-0.9,0.3c-0.1,0.1-0.1,0.3-0.1,0.4l0.6,3
			l-2.2,2.2c-0.3,0.3-0.3,0.7,0,0.9c0.1,0.1,0.2,0.2,0.4,0.2l3,0.4l1.4,2.7c0.2,0.3,0.6,0.5,0.9,0.3
			C299.8,206.8,299.9,206.7,300,206.6L300,206.6z"/>
	</g>
</g>
</svg>
