<?xml version="1.0" encoding="utf-8"?>
<!-- Generator: Adobe Illustrator 25.1.0, SVG Export Plug-In . SVG Version: 6.00 Build 0)  -->
<svg version="1.1" id="Calque_1" xmlns="http://www.w3.org/2000/svg" xmlns:xlink="http://www.w3.org/1999/xlink" x="0px" y="0px"
	 viewBox="0 0 642.5 196" style="enable-background:new 0 0 642.5 196;" xml:space="preserve">
<style type="text/css">
	.st0{fill:#99E0DC;}
</style>
<path id="Tracé_95" class="st0" d="M584.1,196h11.6L500.8,0h-11.6L584.1,196z"/>
<path id="Tracé_100" class="st0" d="M612.2,196h11.1L528.7,0h-11.3L612.2,196z"/>
<path id="Tracé_102" class="st0" d="M221.6,196h11.1L138.1,0h-11.3L221.6,196z"/>
<path id="Tracé_109" class="st0" d="M333.1,196h11.1L249.6,0h-11.3L333.1,196z"/>
<path id="Tracé_110" class="st0" d="M388.8,196h11.3L305.3,0h-11.1L388.8,196z"/>
<path id="Tracé_111" class="st0" d="M305.1,196h11.6L221.8,0h-11.6L305.1,196z"/>
<path id="Tracé_113" class="st0" d="M165.7,196H177L82.2,0H70.8L165.7,196z"/>
<path id="Tracé_114" class="st0" d="M360.7,196h11.6L277.7,0h-11.6L360.7,196z"/>
<path id="Tracé_115" class="st0" d="M249.2,196h11.6L166.1,0h-11.6L249.2,196z"/>
<path id="Tracé_116" class="st0" d="M277.2,196h11.3L193.7,0h-11.1L277.2,196z"/>
<path id="Tracé_117" class="st0" d="M193.5,196H205L110.2,0H98.7L193.5,196z"/>
<path id="Tracé_118" class="st0" d="M500.4,196h11.3L417.1,0h-11.3L500.4,196z"/>
<path id="Tracé_119" class="st0" d="M528.2,196h11.6L444.9,0h-11.3L528.2,196z"/>
<path id="Tracé_120" class="st0" d="M416.6,196h11.6L333.4,0h-11.6L416.6,196z"/>
<path id="Tracé_121" class="st0" d="M556.3,196h11.3L472.8,0h-11.3L556.3,196z"/>
<path id="Tracé_122" class="st0" d="M109.8,196h11.3L26.5,0H15.2L109.8,196z"/>
<path id="Tracé_123" class="st0" d="M444.7,196h11.1L361.2,0h-11.3L444.7,196z"/>
<path id="Tracé_124" class="st0" d="M137.6,196h11.6L54.3,0H43L137.6,196z"/>
<path id="Tracé_125" class="st0" d="M472.3,196h11.6L389.3,0h-11.6L472.3,196z"/>
<polygon class="st0" points="0.5,3.8 0.5,27.7 81.7,196 93.2,196 "/>
<polygon class="st0" points="642.5,177.8 556.7,0 545.2,0 639.8,196 642.5,196 "/>
<polygon class="st0" points="642.5,120.3 584.3,0 573.3,0 642.5,143.6 "/>
<polygon class="st0" points="642.5,62.3 612.4,0 600.9,0 642.5,86.2 "/>
<polygon class="st0" points="0.5,62 0.5,85.7 53.8,196 65.2,196 "/>
<polygon class="st0" points="0.5,119.8 0.5,143.7 25.8,196 37.3,196 "/>
<polygon class="st0" points="0.5,177.9 0.5,196 9.3,196 "/>
</svg>
