<?xml version="1.0" encoding="utf-8"?>
<!-- Generator: Adobe Illustrator 25.2.0, SVG Export Plug-In . SVG Version: 6.00 Build 0)  -->
<svg version="1.1" id="Calque_1" xmlns="http://www.w3.org/2000/svg" xmlns:xlink="http://www.w3.org/1999/xlink" x="0px" y="0px"
	 viewBox="0 0 193.9 170" style="enable-background:new 0 0 193.9 170;" xml:space="preserve">
<style type="text/css">
	.st0{fill:none;}
	.st1{filter:url(#Adobe_OpacityMaskFilter);}
	.st2{fill-rule:evenodd;clip-rule:evenodd;fill:url(#SVGID_2_);}
	.st3{mask:url(#SVGID_1_);fill-rule:evenodd;clip-rule:evenodd;fill:url(#SVGID_3_);}
	.st4{enable-background:new    ;}
	.st5{clip-path:url(#SVGID_5_);}
	.st6{clip-path:url(#SVGID_7_);enable-background:new    ;}
	.st7{clip-path:url(#SVGID_9_);fill:url(#SVGID_10_);}
	.st8{clip-path:url(#SVGID_12_);enable-background:new    ;}
	.st9{clip-path:url(#SVGID_14_);fill:#FFFFFF;}
	.st10{clip-path:url(#SVGID_14_);fill:none;stroke:#1F253A;stroke-width:1.3;stroke-linejoin:round;}
	.st11{clip-path:url(#SVGID_14_);fill:none;stroke:#1F253A;stroke-width:1.3;stroke-miterlimit:10;}
	.st12{clip-path:url(#SVGID_14_);fill:#FF9369;}
	.st13{clip-path:url(#SVGID_14_);fill:#F47F64;}
	.st14{clip-path:url(#SVGID_14_);fill:#1F253A;}
	.st15{clip-path:url(#SVGID_14_);fill:#27465B;}
	.st16{clip-path:url(#SVGID_14_);fill:none;stroke:#1F253A;stroke-width:1.3;stroke-linecap:round;stroke-linejoin:round;}
	.st17{clip-path:url(#SVGID_14_);fill:#52B2B2;}
	.st18{clip-path:url(#SVGID_14_);fill:none;stroke:#1F253A;stroke-width:1.3;}
	.st19{fill:#FFFFFF;stroke:#1F253A;stroke-width:1.3;stroke-linejoin:round;}
	.st20{fill:none;stroke:#1F253A;stroke-width:1.3;stroke-linejoin:round;}
	.st21{fill:#52B2B2;stroke:#1F253A;stroke-width:1.3;stroke-linejoin:round;}
	.st22{fill:#FFFFFF;stroke:#1F253A;stroke-width:1.3;stroke-miterlimit:10;}
	.st23{fill:#FFF3E1;stroke:#1F253A;stroke-width:1.3;stroke-linejoin:round;}
	.st24{fill:none;stroke:#1F253A;stroke-width:1.3;stroke-linecap:round;stroke-miterlimit:10;}
	.st25{fill:none;stroke:#1F253A;stroke-width:1.3;stroke-miterlimit:10;}
</style>
<pattern  y="170" width="1852" height="680" patternUnits="userSpaceOnUse" id="Unnamed_Pattern" viewBox="0 -680 1852 680" style="overflow:visible;">
	<g>
		<rect y="-680" class="st0" width="1852" height="680"/>
		<defs>
			<filter id="Adobe_OpacityMaskFilter" filterUnits="userSpaceOnUse" x="0" y="0" width="1852" height="680">
				<feColorMatrix  type="matrix" values="1 0 0 0 0  0 1 0 0 0  0 0 1 0 0  0 0 0 1 0"/>
			</filter>
		</defs>
		<mask maskUnits="userSpaceOnUse" x="0" y="0" width="1852" height="680" id="SVGID_1_">
			<g class="st1">
				
					<linearGradient id="SVGID_2_" gradientUnits="userSpaceOnUse" x1="7125.353" y1="-3230.9724" x2="7199.1572" y2="-3408.5586" gradientTransform="matrix(4 0 0 4 -27823.4785 13180.7812)">
					<stop  offset="0" style="stop-color:#4A4A4A"/>
					<stop  offset="0.569" style="stop-color:#FFFFFF"/>
					<stop  offset="1" style="stop-color:#FFFFFF"/>
				</linearGradient>
				<rect y="-680" class="st2" width="1852" height="680"/>
			</g>
		</mask>
		
			<linearGradient id="SVGID_3_" gradientUnits="userSpaceOnUse" x1="7125.353" y1="-3230.9724" x2="7199.1572" y2="-3408.5586" gradientTransform="matrix(4 0 0 4 -27823.4785 13180.7812)">
			<stop  offset="0" style="stop-color:#FFFFFF"/>
			<stop  offset="0.569" style="stop-color:#E1F9F8"/>
			<stop  offset="1" style="stop-color:#E4F1FB"/>
		</linearGradient>
		<rect y="-680" class="st3" width="1852" height="680"/>
	</g>
</pattern>
<g>
	<g class="st4">
		<g>
			<defs>
				<rect id="SVGID_4_" width="465" height="170"/>
			</defs>
			<clipPath id="SVGID_5_">
				<use xlink:href="#SVGID_4_"  style="overflow:visible;"/>
			</clipPath>
			<g class="st5">
				<defs>
					<path id="SVGID_6_" d="M0,150V20c0-1.3,0.1-2.6,0.4-3.9s0.6-2.5,1.1-3.8S2.6,10,3.4,8.9s1.6-2.1,2.5-3s1.9-1.8,3-2.5
						s2.2-1.3,3.5-1.8s2.5-0.9,3.8-1.1S18.7,0,20,0h422.9c1.3,0,2.6,0.1,3.9,0.4s2.5,0.6,3.8,1.1s2.4,1.1,3.5,1.8
						c1.1,0.7,2.1,1.6,3,2.5c0.9,0.9,1.8,1.9,2.5,3s1.3,2.2,1.8,3.5c0.5,1.2,0.9,2.5,1.1,3.8s0.4,2.6,0.4,3.9v130
						c0,1.3-0.1,2.6-0.4,3.9s-0.6,2.5-1.1,3.8c-0.5,1.2-1.1,2.4-1.8,3.5s-1.6,2.1-2.5,3c-0.9,0.9-1.9,1.8-3,2.5
						c-1.1,0.7-2.2,1.3-3.5,1.8s-2.5,0.9-3.8,1.1c-1.3,0.3-2.6,0.4-3.9,0.4H20c-1.3,0-2.6-0.1-3.9-0.4c-1.3-0.3-2.5-0.6-3.8-1.1
						s-2.4-1.1-3.5-1.8c-1.1-0.7-2.1-1.6-3-2.5c-0.9-0.9-1.8-1.9-2.5-3c-0.7-1.1-1.3-2.2-1.8-3.5s-0.9-2.5-1.1-3.8S0,151.3,0,150z"
						/>
				</defs>
				<clipPath id="SVGID_7_">
					<use xlink:href="#SVGID_6_"  style="overflow:visible;"/>
				</clipPath>
				<g class="st6">
					<g>
						<defs>
							<rect id="SVGID_8_" width="463" height="170"/>
						</defs>
						<clipPath id="SVGID_9_">
							<use xlink:href="#SVGID_8_"  style="overflow:visible;"/>
						</clipPath>
						<pattern  id="SVGID_10_" xlink:href="#Unnamed_Pattern" patternTransform="matrix(0.25 0 0 0.25 0 -680)">
						</pattern>
						<path class="st7" d="M-40.6-0.7C8.6-19.7,72.6-15.9,86.3-13.5c21.3,3.7,31.4,8.8,39,19.5c13.9,19.6,3.4,31.4-5.3,37.6
							c-12.9,9.1-18.4,32.9,14.6,30.5c14.5-1.1,34.4,7.8,38.2,25.2c6.8,31.1-6.1,74.2-48.4,76.7c-88.4,5.2-205.2,7.9-213.7-26.5
							c-5.9-23.6-0.1-44.8,32.9-50.2c13.7-2.2,32.7-23.3,2.1-35.2C-80.2,54.1-92.3,19.3-40.6-0.7z"/>
					</g>
				</g>
			</g>
			<g class="st5">
				<defs>
					<path id="SVGID_11_" d="M0,150V20c0-1.3,0.1-2.6,0.4-3.9s0.6-2.5,1.1-3.8S2.6,10,3.4,8.9s1.6-2.1,2.5-3s1.9-1.8,3-2.5
						s2.2-1.3,3.5-1.8s2.5-0.9,3.8-1.1S18.7,0,20,0h422.9c1.3,0,2.6,0.1,3.9,0.4s2.5,0.6,3.8,1.1s2.4,1.1,3.5,1.8
						c1.1,0.7,2.1,1.6,3,2.5c0.9,0.9,1.8,1.9,2.5,3s1.3,2.2,1.8,3.5c0.5,1.2,0.9,2.5,1.1,3.8s0.4,2.6,0.4,3.9v130
						c0,1.3-0.1,2.6-0.4,3.9s-0.6,2.5-1.1,3.8c-0.5,1.2-1.1,2.4-1.8,3.5s-1.6,2.1-2.5,3c-0.9,0.9-1.9,1.8-3,2.5
						c-1.1,0.7-2.2,1.3-3.5,1.8s-2.5,0.9-3.8,1.1c-1.3,0.3-2.6,0.4-3.9,0.4H20c-1.3,0-2.6-0.1-3.9-0.4c-1.3-0.3-2.5-0.6-3.8-1.1
						s-2.4-1.1-3.5-1.8c-1.1-0.7-2.1-1.6-3-2.5c-0.9-0.9-1.8-1.9-2.5-3c-0.7-1.1-1.3-2.2-1.8-3.5s-0.9-2.5-1.1-3.8S0,151.3,0,150z"
						/>
				</defs>
				<clipPath id="SVGID_12_">
					<use xlink:href="#SVGID_11_"  style="overflow:visible;"/>
				</clipPath>
				<g class="st8">
					<g>
						<defs>
							<rect id="SVGID_13_" width="463" height="170"/>
						</defs>
						<clipPath id="SVGID_14_">
							<use xlink:href="#SVGID_13_"  style="overflow:visible;"/>
						</clipPath>
						<path class="st9" d="M76.3,88.5l-4.4-1.9c-0.5-0.2-0.7-0.6-0.7-1.1l3.9-28.2c0.1-0.7,2.2-0.7,2.9-0.3l3.3,1.5
							c0.5,0.2,0.7,0.6,0.7,1.1l-3.9,28.2C78,88.5,77.1,88.8,76.3,88.5z"/>
						<path class="st10" d="M76.3,88.5l-4.4-1.9c-0.5-0.2-0.7-0.6-0.7-1.1l3.9-28.2c0.1-0.7,2.2-0.7,2.9-0.3l3.3,1.5
							c0.5,0.2,0.7,0.6,0.7,1.1l-3.9,28.2C78,88.5,77.1,88.8,76.3,88.5z"/>
						<path class="st9" d="M74.5,88.2l-4.4-1.9c-0.5-0.2-0.7-0.6-0.7-1.1l3.9-28.2c0.1-0.7,1-1.1,1.8-0.7l4.4,1.9
							c0.5,0.2,0.7,0.6,0.7,1.1l-3.9,28.2C76.2,88.2,75.3,88.6,74.5,88.2z"/>
						<path class="st10" d="M74.5,88.2l-4.4-1.9c-0.5-0.2-0.7-0.6-0.7-1.1l3.9-28.2c0.1-0.7,1-1.1,1.8-0.7l4.4,1.9
							c0.5,0.2,0.7,0.6,0.7,1.1l-3.9,28.2C76.2,88.2,75.3,88.6,74.5,88.2z"/>
						<polygon class="st9" points="74.6,56.2 76.6,56.5 81.5,58.6 79.9,58.5 75.2,56.4 						"/>
						<polygon class="st10" points="74.6,56.2 76.6,56.5 81.5,58.6 79.9,58.5 75.2,56.4 						"/>
						<path class="st9" d="M75,88.4L75,88.4l1.9,0.3c0,0,0.3,0,0.4,0c0.1,0,0.5-0.2,0.6-0.3c0.1-0.1,0.2-0.4,0.2-0.4l-1.8-0.3
							c0,0-0.1,0.5-0.4,0.6"/>
						<path class="st10" d="M75,88.4L75,88.4l1.9,0.3c0,0,0.3,0,0.4,0c0.1,0,0.5-0.2,0.6-0.3c0.1-0.1,0.2-0.4,0.2-0.4l-1.8-0.3
							c0,0-0.1,0.5-0.4,0.6"/>
						<path class="st9" d="M65.5,91.1l2.2-8c0,0-0.9-3.3-1.3-5.2c-0.3-1.9-0.1-4,0.2-4.3c0.2-0.4,5.5-7.4,5.5-7.4s-0.3,3.3-0.5,4.5
							c-0.2,1.2-0.9,2.9-1.4,3.8"/>
						<path class="st10" d="M65.5,91.1l2.2-8c0,0-0.9-3.3-1.3-5.2c-0.3-1.9-0.1-4,0.2-4.3c0.2-0.4,5.5-7.4,5.5-7.4s-0.3,3.3-0.5,4.5
							c-0.2,1.2-0.9,2.9-1.4,3.8"/>
						<path class="st9" d="M84,79.2c-0.2-0.7-0.5-1.4-1.8-1c-1.3,0.4-3.5,1.8-3.8,2.2c-0.3,0.4-0.5,0.6-0.4,1.1
							c0.1,0.5,0.8,0.9,1.3,1.1c0.5,0.2,2.7-0.5,3.3-0.8C83.3,81.6,84.6,80.6,84,79.2z"/>
						<path class="st10" d="M84,79.2c-0.2-0.7-0.5-1.4-1.8-1c-1.3,0.4-3.5,1.8-3.8,2.2c-0.3,0.4-0.5,0.6-0.4,1.1
							c0.1,0.5,0.8,0.9,1.3,1.1c0.5,0.2,2.7-0.5,3.3-0.8C83.3,81.6,84.6,80.6,84,79.2z"/>
						<path class="st9" d="M84.5,75.2c-0.4-0.7-1.2-1.1-2.6-0.3c-1.4,0.7-2.7,2-3,2.5c-0.3,0.5-0.6,0.8-0.5,1.4
							c0.1,0.5,0.8,0.9,1.4,1.1c0.6,0.2,3.3-1,3.9-1.5C84.4,77.9,85.3,76.6,84.5,75.2z"/>
						<path class="st10" d="M84.5,75.2c-0.4-0.7-1.2-1.1-2.6-0.3c-1.4,0.7-2.7,2-3,2.5c-0.3,0.5-0.6,0.8-0.5,1.4
							c0.1,0.5,0.8,0.9,1.4,1.1c0.6,0.2,3.3-1,3.9-1.5C84.4,77.9,85.3,76.6,84.5,75.2z"/>
						<path class="st9" d="M85.1,67.1c-0.2-0.7-1.3-1.8-2.7-1.6c-1.4,0.2-2,0.4-2.4,0.6c-0.5,0.2-1,0.8-1,1.3c0,0.5,0.4,1.1,0.8,1.4
							c0.5,0.4,2.1,0.4,2.9,0.3C83.4,69.1,85.6,68.6,85.1,67.1z"/>
						<path class="st10" d="M85.1,67.1c-0.2-0.7-1.3-1.8-2.7-1.6c-1.4,0.2-2,0.4-2.4,0.6c-0.5,0.2-1,0.8-1,1.3
							c0,0.5,0.4,1.1,0.8,1.4c0.5,0.4,2.1,0.4,2.9,0.3C83.4,69.1,85.6,68.6,85.1,67.1z"/>
						<path class="st9" d="M85,71c-0.2-0.7-1.1-2.1-2.5-1.2c-1.4,0.9-3.1,2.8-3.4,3.3c-0.3,0.5-0.6,0.9-0.6,1.5
							c0.1,0.6,0.8,0.9,1.4,1c1.1,0.2,2.4-0.6,3.1-1.2C83.6,73.9,85.3,72.4,85,71z"/>
						<path class="st10" d="M85,71c-0.2-0.7-1.1-2.1-2.5-1.2c-1.4,0.9-3.1,2.8-3.4,3.3c-0.3,0.5-0.6,0.9-0.6,1.5
							c0.1,0.6,0.8,0.9,1.4,1c1.1,0.2,2.4-0.6,3.1-1.2C83.6,73.9,85.3,72.4,85,71z"/>
						<path class="st10" d="M81.7,82.1c0,0-0.6,2.5-2.3,4.7C77.7,89,68.4,97,68.4,97"/>
						<path class="st9" d="M36.7,75.4c0.3,1.9,1.1,5.3-0.1,8.8c-0.7,2-2.9,2.8-2.9,2.8s1.1,2.1,1.5,2.9c0.4,0.8,2.5,8.4,11.6,8.4
							c2.6,0,8-3.2,8-4.6c-0.1-5.6-3.6-4.1-3.8-7.2c-0.2-3,0.4-5.4,0.4-5.4"/>
						<path class="st11" d="M36.7,75.4c0.3,1.9,1.1,5.3-0.1,8.8c-0.7,2-2.9,2.8-2.9,2.8s1.1,2.1,1.5,2.9c0.4,0.8,2.5,8.4,11.6,8.4
							c2.6,0,8-3.2,8-4.6c-0.1-5.6-3.6-4.1-3.8-7.2c-0.2-3,0.4-5.4,0.4-5.4"/>
						<path class="st12" d="M60.2,76.2c0,0,1.6,6.6,1.6,12.3c0,5.7-1.5,12.4-1.5,12.4s-1.5-6.7-3.6-8.2c-2.1-1.5-3.5-1.1-3.5-1.1
							s0.3-2.4-1-3.4c-1.3-1-1.1-2.3-1.1-2.3l0.3-4.8c0,0,3.2-0.5,5.3-1.7C59.6,77.7,60.2,76.2,60.2,76.2z"/>
						<path class="st9" d="M62,34.3c0,0,3.1,4.6,3.9,6.2c0.9,1.1,4.4,9.2,1.9,20.6c-2.4,11.2-6.3,16.1-12.5,18.9
							c-5.6,2.6-11.8,0.3-16-2.7c-3.8-2.7-5.8-4.4-5.8-4.4s-3.5-4.5-4.1-10.5c-0.6-6-3.6-16.9,1.7-25.4c5.3-8.5,12.3-11.6,20.3-9.7
							C59.4,29.3,62,34.3,62,34.3z"/>
						<path class="st11" d="M62,34.3c0,0,3.1,4.6,3.9,6.2c0.9,1.1,4.4,9.2,1.9,20.6c-2.4,11.2-6.3,16.1-12.5,18.9
							c-5.6,2.6-11.8,0.3-16-2.7c-3.8-2.7-5.8-4.4-5.8-4.4s-3.5-4.5-4.1-10.5c-0.6-6-3.6-16.9,1.7-25.4c5.3-8.5,12.3-11.6,20.3-9.7
							C59.4,29.3,62,34.3,62,34.3z"/>
						<path class="st13" d="M9.4,80.6c2.1-3,6.9-6,6.6-9.4c-1.4,1-3.2,1.5-5,1.8c-4.6,0.8-6.8-4.3-6.8-4.3s2.5,0.6,4.3,0.3
							c1.8-0.2,5.1-3.4,6-5.9c1.5-4.2,0.7-10.8,0.9-14.4c0.5-9.5,3.3-16.3,10.9-22c7.7-5.7,18.8-7.5,25.7-5.3c6.9,2.1,8.9,8,8.9,8
							s1.2,0.7,2.1,1.3c0.9,0.6,3.2,2.6,4.9,6.6c1.8,4,1.4,9.1,0.7,14.7C68,57.7,66.2,67,66.2,67s-0.2,3.8,0.3,7
							c0.5,3.2,6.3,1.7,6.3,1.7s-3.8,3.1-7.1,1.9c-3.5-1.3-3.5-4.3-3.5-4.3s3.2-8.9,3.8-12.6c0.6-3.8,0.4-10.8-0.7-15.5
							c-1-4.6-5-9.2-5-9.2s-5.2,4.2-10.5,7.5c-5.3,3.3-14.2,7.2-14.2,7.2s-1.9,11.9-2,13.4c-0.5,7,4.6,11.9,4.6,11.9l-3.9-2.4
							l0,10.9c0,0-1.3,0.8-2.5,1.2c-1.2,0.3-3.9,2.6-3.9,2.6s-4.2,0.8-7.4,3c-3,2.2-10.5,15.5-10.5,15.5S4.7,96.6,5.6,89.3
							C5.8,87.1,7.3,83.6,9.4,80.6z"/>
						<path class="st14" d="M60.4,58.1c0.1-0.5,0.1-0.9,0.2-1.3s0.2-0.8,0.4-1.1c0.1-0.3,0.3-0.6,0.4-0.7c0.1-0.2,0.3-0.2,0.4-0.2
							c0.1,0,0.3,0.1,0.4,0.3c0.1,0.2,0.2,0.5,0.2,0.8s0.1,0.7,0.1,1.2s0,0.9-0.1,1.3c-0.1,0.5-0.1,0.9-0.2,1.3
							c-0.1,0.4-0.2,0.8-0.4,1.1c-0.1,0.3-0.3,0.6-0.4,0.7s-0.3,0.2-0.4,0.2c-0.1,0-0.3-0.1-0.4-0.3c-0.1-0.2-0.2-0.5-0.2-0.8
							s-0.1-0.7-0.1-1.2C60.3,59,60.4,58.6,60.4,58.1z"/>
						<path class="st14" d="M46.1,56.7c0-0.5,0.1-0.9,0.2-1.3c0.1-0.4,0.2-0.8,0.3-1.1c0.1-0.3,0.3-0.6,0.4-0.7
							c0.1-0.2,0.3-0.3,0.4-0.2c0.1,0,0.3,0.1,0.4,0.3c0.1,0.2,0.2,0.4,0.3,0.8c0.1,0.3,0.1,0.7,0.2,1.2c0,0.4,0,0.9,0,1.4
							c0,0.5-0.1,0.9-0.2,1.3s-0.2,0.8-0.3,1.1c-0.1,0.3-0.3,0.6-0.4,0.7s-0.3,0.3-0.4,0.2s-0.3-0.1-0.4-0.3
							c-0.1-0.2-0.2-0.4-0.3-0.8c-0.1-0.3-0.1-0.7-0.2-1.2C46,57.6,46,57.1,46.1,56.7z"/>
						<path class="st11" d="M57.2,70.9c0,0-2.9,0.1-4.7,0c-3-0.2-5.7-0.7-5.7-0.7s0.9,3.5,4.9,4C55.7,74.7,57.2,70.9,57.2,70.9z"/>
						<path class="st11" d="M49.9,48.7c0,0-2.2-1.2-4.7-0.8c-1.8,0.3-2.8,1.2-2.8,1.2"/>
						<path class="st11" d="M60,49.6c0,0,1.9-0.8,4-0.2c2.1,0.6,3.1,1.7,3.1,1.7"/>
						<path class="st11" d="M62.5,35.2c-1.1,1.4-4.7,4.2-8.7,6.6C47.7,45.4,38,49.6,38,49.6s-2.3,5.8-2.2,13.3
							c0.1,9,4.6,11.9,4.6,11.9s-7.1-2.7-9.1-10.9c-1.6-6.4-0.4-12.3-0.4-12.3"/>
						<path class="st11" d="M11.4,104.8c0,0-7.1-9.9-3.4-19.2c3.4-8.6,8.8-9.4,10-18c-0.4,0.3-3.5,3.5-8.4,2.5
							c-3-0.6-3.7-3.3-3.7-3.3s1.2,1,3,1c1.7,0.1,5.2-1.4,6.8-4.5c1.5-3.1,1.3-13.3,1.6-15.9c0.7-7.2,2.5-23.7,26.3-27.9
							c16.2-2.8,20.1,8.7,20.1,8.7s5.3,2.6,7,8.3c3.2,10.7-1.3,22-2.4,31.1c-1.1,9.1,5.5,7.6,5.5,7.6s-3.2,2.1-6.2,1.1
							c-2.7-0.9-3.3-4.2-3.3-4.2l-1.4,2.4c0,0,1.3,5.6,1.7,11.4c0.2,3-0.7,8.6-0.7,8.6"/>
						<polyline class="st11" points="54.8,63.6 56.4,65.6 54,66.7 						"/>
						<path class="st11" d="M70.2,56.5c-0.8-1.4-2.4-2-6.1-2.3c-2.5-0.3-4.6,0.1-5.8,1.6c-1,1.1-1.3,5.9,1.8,7.4
							c3.1,1.5,6.2,1.8,8.3,0C70.6,61.3,71,57.9,70.2,56.5z"/>
						<path class="st11" d="M38.7,53.2c1.1-1.2,3.1-1.4,7.2-0.9c2.8,0.3,5,1.1,6.1,2.9c0.8,1.3-0.1,5.9-3.6,6.8
							c-3.7,1-7,0.8-8.9-1.5C37.4,58.2,37.5,54.4,38.7,53.2z"/>
						<path class="st11" d="M57.5,57.3c0,0-0.9-0.8-2.2-0.9c-2.1-0.2-3.2,0.4-3.2,0.4"/>
						<path class="st11" d="M39.6,48.9c0,0-5.4,2.1-8.8,2.6c-3.1,0.5-7.3-0.2-7.3-0.2s3.5-1.1,9.5-4.2c6-3.1,11.1-9.4,11.1-9.4"/>
						<path class="st15" d="M75.7,141.1c-5-1.5-11.5-17.9-11.5-17.9s1.1-1.8,1.9-4.1c0.8-2.3,1-6.3,0.5-8.8
							c-0.4-2.5-4.6-12.1-4.6-12.1c0.9,3.7,2.3,6.5,3.4,9.2c0.3,0.8,0.6,1.6,0.8,2.4c0.2,0.9,0.4,1.8,0.5,2.7c0.4,6-2.7,11-2.7,11
							s-1.4,6-1,9c0.4,3,1.6,12.4,1.6,12.4l3.7,9.3c0,0,0.1,7.9-11.3,10.2c-11.3,2.3-22.2-1.6-25.2-3.1c-3-1.5-5-5.8-5-5.8
							s-0.9-3.3,0-5.5c0.9-2.2,5.2-13,4.7-17.9c-1.3-11.8-5.8-18.5-5.8-18.5s4.1-9.6,2.5-15.9c-1.6-6.4-4.7-7-4.6-7.4
							c0.1-0.4,10.4-3.7,10.4-3.7s5.3,10.7,14,9.9c9.1-0.8,4-9.4,4-9.4s4.3,0.5,7.6,1.7c2.5,0.9,3.1,3.6,4.4,6.8
							c3.5,8.2,15.7,30.9,15.7,30.9"/>
						<path class="st11" d="M75.7,141.1c-5-1.5-11.5-17.9-11.5-17.9s1.1-1.8,1.9-4.1c0.8-2.3,1-6.3,0.5-8.8
							c-0.4-2.5-4.6-12.1-4.6-12.1c0.9,3.7,2.3,6.5,3.4,9.2c0.3,0.8,0.6,1.6,0.8,2.4c0.2,0.9,0.4,1.8,0.5,2.7c0.4,6-2.7,11-2.7,11
							s-1.4,6-1,9c0.4,3,1.6,12.4,1.6,12.4l3.7,9.3c0,0,0.1,7.9-11.3,10.2c-11.3,2.3-22.2-1.6-25.2-3.1c-3-1.5-5-5.8-5-5.8
							s-0.9-3.3,0-5.5c0.9-2.2,5.2-13,4.7-17.9c-1.3-11.8-5.8-18.5-5.8-18.5s4.1-9.6,2.5-15.9c-1.6-6.4-4.7-7-4.6-7.4
							c0.1-0.4,10.4-3.7,10.4-3.7s5.3,10.7,14,9.9c9.1-0.8,4-9.4,4-9.4s4.3,0.5,7.6,1.7c2.5,0.9,3.1,3.6,4.4,6.8
							c3.5,8.2,15.7,30.9,15.7,30.9"/>
						<path class="st15" d="M29.3,110.1l-13.1,27.4c0,0-11.9,3.8-12,1.6c-0.9-14.7,13-41.5,16.7-46.3c4.4-5.7,11.4-0.3,11.6,4.6
							C32.7,103.1,29.3,110.1,29.3,110.1z"/>
						<path class="st11" d="M29.3,110.1l-13.1,27.4c0,0-11.9,3.8-12,1.6c-0.9-14.7,13-41.5,16.7-46.3c4.4-5.7,11.4-0.3,11.6,4.6
							C32.7,103.1,29.3,110.1,29.3,110.1z"/>
						<path class="st11" d="M38.4,144.5c0,0-0.4-2.2,0.5-4c0.9-1.9,4.6-2.7,7.4-2.1c2.8,0.6,4.8,1.5,5.4,2.9
							c0.7,1.4,0.6,3.2,0.6,3.2H38.4z"/>
						<path class="st9" d="M9.1,128.5c-2.9,1.9-4.3,4.2-4.8,7.1c-0.4,2.9,0,7.2,3,7.8c8.4,1.8,16.1-5.4,18.4-5.4
							c0.6,0,3.7,1.6,3.7,1.6s0.2,0.1,0.8,1.5c0.9,2,2.7,2.5,3.6,2.9c0.9,0.4,2.4,0.1,2.9-0.5c0.4-0.6-0.6-1.7-1.7-3.3
							c-0.4-0.5-1.2-1.4-1.4-2.1c-0.3-1.5,0.7-3.2,0.7-3.2s3.8,2.7,4.3,3.3c0.5,0.5,1.6,4.9,2.9,4.9c1.3,0,2.3-0.8,2-2.5
							c-0.3-1.6-1.9-5.2-2.8-5.5c-0.9-0.3-3.1-1.9-3.1-1.9s4.2,2.3,4.7,3.3c0.5,1,1.6,4,1.8,4.8c0.3,1,1.9,1.5,2.5,1
							c1.6-1.3,0.4-2.2,0.1-3.9c-0.2-1.6-0.7-2.8-1-3.4c-0.6-1.2-4.1-3.3-4.1-3.3s4.3,1.5,5,3.3c0.6,1.8,1.3,5,1.9,5.8
							c0.7,0.8,1.6,1.1,2.2,0.1c0.6-1-0.1-2.6-0.4-3.6c-0.2-0.7-0.5-2.4-0.9-3.5c-0.2-0.5-0.1-1.5-1.1-2.4c-1-0.9-4.2-1.3-4.2-1.3
							s4.4,0.3,5.3,2.1c0.9,1.8,2.2,7.7,2.4,8.4c0.2,0.7,0.8,2,0.8,2s1-2.9,0.4-4c-0.7-1.4-2.1-2.2-2.1-2.2l-0.7-3.6
							c0,0-1.3-2.5-4.2-2.5c-2.9,0-9.7-0.4-12.2-0.2c-2.9,0.3-12.2-2.7-14.9-2.9C16.2,127,11.9,126.6,9.1,128.5z"/>
						<path class="st10" d="M9.1,128.5c-2.9,1.9-4.3,4.2-4.8,7.1c-0.4,2.9,0,7.2,3,7.8c8.4,1.8,16.1-5.4,18.4-5.4
							c0.6,0,3.7,1.6,3.7,1.6s0.2,0.1,0.8,1.5c0.9,2,2.7,2.5,3.6,2.9c0.9,0.4,2.4,0.1,2.9-0.5c0.4-0.6-0.6-1.7-1.7-3.3
							c-0.4-0.5-1.2-1.4-1.4-2.1c-0.3-1.5,0.7-3.2,0.7-3.2s3.8,2.7,4.3,3.3c0.5,0.5,1.6,4.9,2.9,4.9c1.3,0,2.3-0.8,2-2.5
							c-0.3-1.6-1.9-5.2-2.8-5.5c-0.9-0.3-3.1-1.9-3.1-1.9s4.2,2.3,4.7,3.3c0.5,1,1.6,4,1.8,4.8c0.3,1,1.9,1.5,2.5,1
							c1.6-1.3,0.4-2.2,0.1-3.9c-0.2-1.6-0.7-2.8-1-3.4c-0.6-1.2-4.1-3.3-4.1-3.3s4.3,1.5,5,3.3c0.6,1.8,1.3,5,1.9,5.8
							c0.7,0.8,1.6,1.1,2.2,0.1c0.6-1-0.1-2.6-0.4-3.6c-0.2-0.7-0.5-2.4-0.9-3.5c-0.2-0.5-0.1-1.5-1.1-2.4c-1-0.9-4.2-1.3-4.2-1.3
							s4.4,0.3,5.3,2.1c0.9,1.8,2.2,7.7,2.4,8.4c0.2,0.7,0.8,2,0.8,2s1-2.9,0.4-4c-0.7-1.4-2.1-2.2-2.1-2.2l-0.7-3.6
							c0,0-1.3-2.5-4.2-2.5c-2.9,0-9.7-0.4-12.2-0.2c-2.9,0.3-12.2-2.7-14.9-2.9C16.2,127,11.9,126.6,9.1,128.5z"/>
						<path class="st9" d="M38,129.7c1.1-0.2,2.1,0.1,2.6,0.5c0.5,0.4,4.6,3.5,5.2,4.2c0.6,0.7,0.8,3,0.9,3.3
							c0.1,0.3,0.9,2.7,0.8,3.3c-0.1,0.5-0.3,1.6-1.5,1.6c-1.2,0-1.8-0.1-2.1-0.8c-0.2-0.8-1-3.8-1-3.9c0-0.1-1.4-2.5-1.4-2.5
							l-8.1-4.8C33.5,130.5,36.9,129.9,38,129.7z"/>
						<path class="st11" d="M38,129.7c1.1-0.2,2.1,0.1,2.6,0.5c0.5,0.4,4.6,3.5,5.2,4.2c0.6,0.7,0.8,3,0.9,3.3
							c0.1,0.3,0.9,2.7,0.8,3.3c-0.1,0.5-0.3,1.6-1.5,1.6c-1.2,0-1.8-0.1-2.1-0.8c-0.2-0.8-1-3.8-1-3.9c0-0.1-1.4-2.5-1.4-2.5
							l-8.1-4.8C33.5,130.5,36.9,129.9,38,129.7z"/>
						<path class="st9" d="M30.9,130.9c0.9-0.6,2-0.7,2-0.7c1.6,0.1,7.7,3.2,8.5,4.7c0.8,1.4,1.8,4.2,2,5.2c0.1,1,0.2,2.4-0.6,2.5
							c-0.8,0.2-2,0.5-2.6-0.5c-0.5-1-1-3.2-1-3.2l-2.1-2.3l-2-1.2"/>
						<path class="st16" d="M30.9,130.9c0.9-0.6,2-0.7,2-0.7c1.6,0.1,7.7,3.2,8.5,4.7c0.8,1.4,1.8,4.2,2,5.2c0.1,1,0.2,2.4-0.6,2.5
							c-0.8,0.2-2,0.5-2.6-0.5c-0.5-1-1-3.2-1-3.2l-2.1-2.3l-2-1.2"/>
						<path class="st9" d="M27.4,137.5c0,0,2.4,2.1,2.5,2.8c0.1,0.7,2.4,2.7,3.1,3.1c0.7,0.4,2.1,1.4,3.2,0.3
							c1.1-1.1-1.6-3.5-2.5-5.1c-0.8-1.3,0.6-3.9,0.6-3.9l1.1,0.7l1.8,1.1"/>
						<path class="st10" d="M27.4,137.5c0,0,2.4,2.1,2.5,2.8c0.1,0.7,2.4,2.7,3.1,3.1c0.7,0.4,2.1,1.4,3.2,0.3
							c1.1-1.1-1.6-3.5-2.5-5.1c-0.8-1.3,0.6-3.9,0.6-3.9l1.1,0.7l1.8,1.1"/>
						<rect x="-17.4" y="144.5" class="st17" width="194" height="11.5"/>
						<rect x="-17.4" y="144.5" class="st11" width="194" height="11.5"/>
						<path class="st9" d="M133.8,90.2H64c-1.4,0-2.6,1.2-2.7,2.8l-3.1,47.5c-0.1,2,1.4,3.7,3.3,3.7h66.9c2.7,0,5-2.3,5.2-5.2
							l3-45.6C136.7,91.7,135.4,90.2,133.8,90.2z"/>
						<path class="st11" d="M133.8,90.2H64c-1.4,0-2.6,1.2-2.7,2.8l-3.1,47.5c-0.1,2,1.4,3.7,3.3,3.7h66.9c2.7,0,5-2.3,5.2-5.2
							l3-45.6C136.7,91.7,135.4,90.2,133.8,90.2z"/>
						<rect x="-10" y="156" class="st15" width="175.5" height="14"/>
						<rect x="-10" y="156" class="st18" width="175.5" height="14"/>
						<polygon class="st9" points="58.1,139.3 53.1,139.8 52.3,142.8 52.8,144.2 56.9,144.2 						"/>
						<polygon class="st11" points="58.1,139.3 53.1,139.8 52.3,142.8 52.8,144.2 56.9,144.2 						"/>
						<line class="st11" x1="55.4" y1="144.2" x2="62.9" y2="144.2"/>
					</g>
				</g>
			</g>
		</g>
	</g>
</g>
<g id="Groupe_704" transform="translate(-335.848 -695.775)">
	<g id="Groupe_495" transform="translate(-1301.353 -374.401) rotate(-3)">
		<path id="Tracé_1104" class="st19" d="M1719.2,1193.4l-6,9.3l-9.2,19.8l-11.5-11.3L1719.2,1193.4z"/>
		<path id="Tracé_1105" class="st19" d="M1681.4,1201.5l8,7.5l29.8-15.6L1681.4,1201.5z"/>
		<path id="Tracé_1106" class="st20" d="M1696.9,1215.6c0,0-6.1,4.4-6.1,4.3s1.6-8.6,1.6-8.6L1696.9,1215.6z"/>
		<path id="Tracé_1107" class="st20" d="M1689.4,1209l1.5,10.9l1.6-8.6"/>
	</g>
	<g id="Groupe_498" transform="translate(-1051.982 -389.023)">
		<rect id="Rectangle_594" x="1524.2" y="1157.5" class="st21" width="14.5" height="9.3"/>
		<path id="Tracé_1108" class="st21" d="M1538.7,1166.8l-6.1-4.2l6.1-5.1V1166.8h-14.5v-9.3l6.1,5.2l-6.1,4.1"/>
		<path id="Tracé_1109" class="st21" d="M1524.2,1157.5h14.5l-7.3,6.1L1524.2,1157.5z"/>
	</g>
	<g id="Groupe_497" transform="translate(-1320.675 -653.391)">
		<path id="Tracé_1110" class="st22" d="M1848.9,1479.4l-18-11.8l18-9V1479.4l-35.9,0v-20.8l18,9l-18,11.8"/>
		<path id="Tracé_1112" class="st20" d="M1848.9,1479.4l-18-11.8l18-9V1479.4l-35.9,0v-20.8l18,9l-18,11.8"/>
		<path id="Tracé_1113" class="st22" d="M1826.3,1448.5l4.7-3.6l4.7,3.6"/>
		<path id="Tracé_1114" class="st23" d="M1816.6,1455.8l-3.6,2.7l3.6,1.9"/>
		<path id="Tracé_1115" class="st22" d="M1816.6,1460.5v-12.2h28.8v12.1l-14.4,7.1L1816.6,1460.5z"/>
		<line id="Ligne_344" class="st24" x1="1821.1" y1="1454.3" x2="1841.5" y2="1454.3"/>
		<line id="Ligne_345" class="st24" x1="1821.1" y1="1458.9" x2="1841.5" y2="1458.9"/>
		<line id="Ligne_347" class="st25" x1="1845.3" y1="1455.8" x2="1848.9" y2="1458.6"/>
	</g>
</g>
</svg>
