<?xml version="1.0" encoding="utf-8"?>
<!-- Generator: Adobe Illustrator 25.1.0, SVG Export Plug-In . SVG Version: 6.00 Build 0)  -->
<svg version="1.1" id="Calque_1" xmlns="http://www.w3.org/2000/svg" xmlns:xlink="http://www.w3.org/1999/xlink" x="0px" y="0px"
	 viewBox="0 0 167.4 371.1" style="enable-background:new 0 0 167.4 371.1;" xml:space="preserve">
<style type="text/css">
	.st0{fill:#FFFFFF;stroke:#1F253A;stroke-width:2.2;stroke-miterlimit:10;}
	.st1{fill:#52B2B2;}
	.st2{fill:#1F253A;}
	.st3{fill:#F47F64;}
	.st4{fill:#FFD385;}
	.st5{fill:none;stroke:#1F253A;stroke-width:2.2;stroke-miterlimit:10;}
	.st6{fill:#13737F;}
</style>
<g>
	<rect x="17.6" y="230.2" class="st0" width="149.7" height="140.9"/>
	<g>
		<g>
			<g id="vegetation_9_">
				<path class="st1" d="M107.5,68.2c0,0,9-23.6,3.5-36.4C105.6,19.1,87.2,5.8,92.7,4.1s26.2,2.2,31.4,18.4
					C129.3,38.7,107.5,68.2,107.5,68.2"/>
				<path class="st2" d="M90.4,167.1c0,0,2.7-5.2,4.4-7.3c1.7-2,23.5-20.6,41-48s19.7-43.4,17.3-44.1c-2.4-0.7-39.3,34.6-49.6,54.1
					S94,159.6,94,159.6"/>
				<path class="st3" d="M99.1,115.5c0,0,1.5-11.8,0.6-13.4c-1-1.7-6.4-8.7-16.1-13.6c-9.7-5-13.6-1.9-27.4-6.4
					c-13.9-4.5-29.4-17.3-24.4-19.5c9.3-4.1,41.2,7,51.9,16.3s16.1,23.7,16.1,23.7"/>
			</g>
			<g>
				<path class="st4" d="M100.2,47.7c0,0-10.8-13.4-33.3-12.2S9.7,38.2,2.1,33.3S8.9,14.2,22.5,9.2s28.1-2.5,44.7,5.7
					S100.2,47.7,100.2,47.7"/>
			</g>
			<path class="st5" d="M95.9,184.7c0,0-11.8-22.6-1-56.5s17-43.9,10.8-69.2c-6.2-25.2-55.8-54.9-91.2-34"/>
		</g>
		<path class="st6" d="M77.2,183.9c1,3.9,2.9,9.4,2.9,11.7s-5.3,22.7-5.9,26.6c-0.6,3.9,1,7.8,1,7.8h42c0,0,1.8-6,0.4-9.1
			c-1.4-3.1-12.7-27-12.7-29.9s2.1-10.2,1-10.7C104.8,179.6,76.3,180,77.2,183.9z"/>
	</g>
</g>
</svg>
