<svg id="Groupe_521" data-name="Groupe 521" xmlns="http://www.w3.org/2000/svg" width="339.955" height="298.334" viewBox="0 0 339.955 298.334">
  <g id="Groupe_206" data-name="Groupe 206">
    <g id="vegetation" transform="translate(68.165)">
      <path id="Tracé_161" data-name="Tracé 161" d="M601.378,873.741s19.933-52.153,7.813-80.375S556.5,735.772,568.6,732.1s58,4.872,69.432,40.68-36.652,100.964-36.652,100.964" transform="translate(-431.949 -731.313)" fill="#52b2b2"/>
      <path id="Tracé_162" data-name="Tracé 162" d="M610.033,952.23a488.051,488.051,0,0,0,45.053-59.444c38.653-60.532,43.505-95.841,38.158-97.475s-86.781,76.562-109.721,119.632c-6.492,12.189-11.055,25.374-14.43,37.287" transform="translate(-423.255 -653.896)" fill="#3d7da0"/>
      <path id="Tracé_163" data-name="Tracé 163" d="M656.462,908.2s3.382-26,1.244-29.722-14.107-19.124-35.6-30.076-30.041-4.243-60.56-14.178c-30.81-10.025-64.892-38.3-53.881-43.12,20.592-9.022,91.14,15.511,114.729,35.921S658.04,879.3,658.04,879.3" transform="translate(-505.551 -661.28)" fill="#f47f64"/>
    </g>
    <g id="Groupe_205" data-name="Groupe 205" transform="translate(0 6.213)">
      <path id="Tracé_164" data-name="Tracé 164" d="M696.252,825.049s-23.872-29.59-73.563-26.858-126.47,5.932-143.3-4.953,14.908-42.13,45.074-53.347,62.11-5.585,98.733,12.677,73.057,72.48,73.057,72.48" transform="translate(-474.71 -734.124)" fill="#ffd385"/>
    </g>
    <path id="Tracé_165" data-name="Tracé 165" d="M661.1,1012.324c.132-7.265,2.852-13.707,5.864-23.147,23.9-74.92,37.493-97.066,23.777-152.852S567.314,715.032,489.227,761.174" transform="translate(-457.141 -714.067)" fill="none" stroke="#1f253a" stroke-miterlimit="10" stroke-width="2.2"/>
  </g>
</svg>
