<?xml version="1.0" encoding="utf-8"?>
<!-- Generator: Adobe Illustrator 25.2.0, SVG Export Plug-In . SVG Version: 6.00 Build 0)  -->
<svg version="1.1" id="Calque_1" xmlns="http://www.w3.org/2000/svg" xmlns:xlink="http://www.w3.org/1999/xlink" x="0px" y="0px"
	 viewBox="0 0 301.2 112.7" style="enable-background:new 0 0 301.2 112.7;" xml:space="preserve">
<style type="text/css">
	.st0{opacity:0.25;fill:url(#Tracé_801_1_);enable-background:new    ;}
	.st1{fill:#FFD385;}
	.st2{opacity:0.25;fill:url(#Tracé_800_1_);enable-background:new    ;}
	.st3{fill:#28B5BF;}
	.st4{fill:#FFFFFF;}
</style>
<g id="Groupe_351" transform="translate(-203 -751)">

		<linearGradient id="Tracé_801_1_" gradientUnits="userSpaceOnUse" x1="105.7225" y1="990.7488" x2="105.7225" y2="989.7488" gradientTransform="matrix(196.8862 0 0 -59.5469 -20505.3574 59758.1836)">
		<stop  offset="0" style="stop-color:#FFD385"/>
		<stop  offset="1" style="stop-color:#FFFFFF"/>
	</linearGradient>
	<path id="Tracé_801" class="st0" d="M211.5,793.2c0,0,11.5-12.1,25-12.1s24.4,12.1,41.8,12.1s42.3-32.1,72.3-31
		s57.7,22.2,57.7,22.2s-30,38.9-44.5,37.3s-50.6-22-57.1-20.7s-41.7,19.4-55.6,19.4s-24.9-9.2-32.6-16.4S211.5,793.2,211.5,793.2z"
		/>
	<g id="Tracé_802">
		<path class="st1" d="M278.3,794.5c-9.4,0-16.8-3.4-23.9-6.7c-6-2.8-11.7-5.4-17.8-5.4c-12.9,0-24.2,11.7-24.3,11.8l-1.4-1.4
			c0.5-0.5,11.9-12.4,25.8-12.4c6.6,0,12.5,2.7,18.7,5.6c6.9,3.2,14.1,6.5,23.1,6.5c7.1,0,15.6-5.7,25.5-12.2
			c13.7-9.1,29.3-19.4,46.9-18.8c30,1.1,58,22.2,58.3,22.4l-1.2,1.6c-0.3-0.2-27.8-20.9-57.2-22c-16.9-0.6-32.2,9.5-45.7,18.4
			C294.8,788.6,286,794.5,278.3,794.5z"/>
	</g>

		<linearGradient id="Tracé_800_1_" gradientUnits="userSpaceOnUse" x1="105.4463" y1="992.0223" x2="105.4463" y2="991.0223" gradientTransform="matrix(301.1941 0 0 -102.2051 -31406.2188 102151.3125)">
		<stop  offset="0" style="stop-color:#28B5BF"/>
		<stop  offset="1" style="stop-color:#FFFFFF"/>
	</linearGradient>
	<path id="Tracé_800" class="st2" d="M203,781c0,0,17.6,36,42.9,36s39.6-18.9,61.1-18.9s40.7,22.5,62.2,18.9s50.6-55.5,80.3-55.5
		s54.7,33.3,54.7,33.3v68.9H203V781z"/>
	<g id="Tracé_799">
		<path class="st3" d="M364.4,818.7c-10,0-19.7-4.9-29-9.7c-9.2-4.7-18.7-9.6-28.5-9.6c-10,0-18.5,4.2-27.5,8.7
			c-9.9,5-20.2,10.1-33.6,10.1c-22.7,0-39-27.6-42.9-34.9l0.9-2.6c0.2,0.4,17.6,35.5,42,35.5c12.9,0,23-5,32.7-9.9
			c9.2-4.6,17.9-9,28.4-9c10.2,0,19.9,5,29.4,9.8c11,5.6,21.5,11,32.6,9.1c9.1-1.5,19.9-12.3,31.4-23.7c15-14.9,32-31.8,49.1-31.8
			c27.2,0,50,26.7,54.7,32.6l0,1.7l-0.8,0.6c-0.2-0.3-25.1-32.9-53.9-32.9c-16.3,0-33,16.6-47.7,31.2
			c-11.7,11.6-22.8,22.6-32.4,24.2C367.7,818.6,366,818.7,364.4,818.7z"/>
	</g>
	<g id="Ellipse_39" transform="translate(364.193 866.502)">
		<circle class="st4" cx="-56.6" cy="-67.1" r="6"/>
		<g>
			<path class="st3" d="M-56.6-61.1c-3.3,0-6-2.7-6-6c0-3.3,2.7-6,6-6s6,2.7,6,6C-50.6-63.8-53.3-61.1-56.6-61.1z M-56.6-71.1
				c-2.2,0-4,1.8-4,4s1.8,4,4,4s4-1.8,4-4S-54.4-71.1-56.6-71.1z"/>
		</g>
	</g>
	<g id="Ellipse_40" transform="translate(503.224 828.705)">
		<circle class="st4" cx="-56.6" cy="-67.1" r="6"/>
		<g>
			<path class="st3" d="M-56.6-61.1c-3.3,0-6-2.7-6-6c0-3.3,2.7-6,6-6s6,2.7,6,6C-50.6-63.8-53.3-61.1-56.6-61.1z M-56.6-71.1
				c-2.2,0-4,1.8-4,4s1.8,4,4,4s4-1.8,4-4S-54.4-71.1-56.6-71.1z"/>
		</g>
	</g>
</g>
</svg>
